%TF.GenerationSoftware,KiCad,Pcbnew,(6.0.4)*%
%TF.CreationDate,2022-06-24T22:40:59+02:00*%
%TF.ProjectId,ESP32_robot,45535033-325f-4726-9f62-6f742e6b6963,rev?*%
%TF.SameCoordinates,Original*%
%TF.FileFunction,Copper,L2,Bot*%
%TF.FilePolarity,Positive*%
%FSLAX46Y46*%
G04 Gerber Fmt 4.6, Leading zero omitted, Abs format (unit mm)*
G04 Created by KiCad (PCBNEW (6.0.4)) date 2022-06-24 22:40:59*
%MOMM*%
%LPD*%
G01*
G04 APERTURE LIST*
G04 Aperture macros list*
%AMRoundRect*
0 Rectangle with rounded corners*
0 $1 Rounding radius*
0 $2 $3 $4 $5 $6 $7 $8 $9 X,Y pos of 4 corners*
0 Add a 4 corners polygon primitive as box body*
4,1,4,$2,$3,$4,$5,$6,$7,$8,$9,$2,$3,0*
0 Add four circle primitives for the rounded corners*
1,1,$1+$1,$2,$3*
1,1,$1+$1,$4,$5*
1,1,$1+$1,$6,$7*
1,1,$1+$1,$8,$9*
0 Add four rect primitives between the rounded corners*
20,1,$1+$1,$2,$3,$4,$5,0*
20,1,$1+$1,$4,$5,$6,$7,0*
20,1,$1+$1,$6,$7,$8,$9,0*
20,1,$1+$1,$8,$9,$2,$3,0*%
G04 Aperture macros list end*
%TA.AperFunction,ComponentPad*%
%ADD10RoundRect,0.500000X0.000000X-0.600000X0.000000X-0.600000X0.000000X0.600000X0.000000X0.600000X0*%
%TD*%
%TA.AperFunction,ComponentPad*%
%ADD11RoundRect,0.500000X0.000000X-0.300000X0.000000X-0.300000X0.000000X0.300000X0.000000X0.300000X0*%
%TD*%
%TA.AperFunction,ComponentPad*%
%ADD12R,1.700000X1.700000*%
%TD*%
%TA.AperFunction,ComponentPad*%
%ADD13O,1.700000X1.700000*%
%TD*%
%TA.AperFunction,ViaPad*%
%ADD14C,0.800000*%
%TD*%
%TA.AperFunction,Conductor*%
%ADD15C,0.250000*%
%TD*%
%TA.AperFunction,Conductor*%
%ADD16C,0.600000*%
%TD*%
G04 APERTURE END LIST*
D10*
%TO.P,J1,S1,SHIELD*%
%TO.N,GND*%
X108688600Y-75695400D03*
D11*
X108688600Y-79875400D03*
D10*
X100048600Y-75695400D03*
D11*
X100048600Y-79875400D03*
%TD*%
D12*
%TO.P,J4,1,Pin_1*%
%TO.N,/Header_11*%
X82800000Y-56050000D03*
D13*
%TO.P,J4,2,Pin_2*%
%TO.N,/Header_12*%
X82800000Y-58590000D03*
%TO.P,J4,3,Pin_3*%
%TO.N,/Header_13*%
X82800000Y-61130000D03*
%TO.P,J4,4,Pin_4*%
%TO.N,/Header_14*%
X82800000Y-63670000D03*
%TO.P,J4,5,Pin_5*%
%TO.N,/Header_15*%
X82800000Y-66210000D03*
%TO.P,J4,6,Pin_6*%
%TO.N,/Header_16*%
X82800000Y-68750000D03*
%TO.P,J4,7,Pin_7*%
%TO.N,/Header_17*%
X82800000Y-71290000D03*
%TO.P,J4,8,Pin_8*%
%TO.N,/Header_18*%
X82800000Y-73830000D03*
%TD*%
D12*
%TO.P,J3,1,Pin_1*%
%TO.N,/Header_10*%
X131200000Y-57200000D03*
D13*
%TO.P,J3,2,Pin_2*%
%TO.N,/Header_9*%
X131200000Y-59740000D03*
%TD*%
D12*
%TO.P,J2,1,Pin_1*%
%TO.N,/Header_1*%
X112650000Y-65000000D03*
D13*
%TO.P,J2,2,Pin_2*%
%TO.N,/Header_2*%
X115190000Y-65000000D03*
%TO.P,J2,3,Pin_3*%
%TO.N,/Header_3*%
X117730000Y-65000000D03*
%TO.P,J2,4,Pin_4*%
%TO.N,/Header_4*%
X120270000Y-65000000D03*
%TO.P,J2,5,Pin_5*%
%TO.N,/Header_5*%
X122810000Y-65000000D03*
%TO.P,J2,6,Pin_6*%
%TO.N,/Header_6*%
X125350000Y-65000000D03*
%TO.P,J2,7,Pin_7*%
%TO.N,/Header_7*%
X127890000Y-65000000D03*
%TO.P,J2,8,Pin_8*%
%TO.N,/Header_8*%
X130430000Y-65000000D03*
%TD*%
D12*
%TO.P,5V1,1,Pin_1*%
%TO.N,5V*%
X80240000Y-56060000D03*
D13*
%TO.P,5V1,2,Pin_2*%
X80240000Y-58600000D03*
%TO.P,5V1,3,Pin_3*%
X80240000Y-61140000D03*
%TO.P,5V1,4,Pin_4*%
X80240000Y-63680000D03*
%TO.P,5V1,5,Pin_5*%
X80240000Y-66220000D03*
%TO.P,5V1,6,Pin_6*%
X80240000Y-68760000D03*
%TO.P,5V1,7,Pin_7*%
X80240000Y-71300000D03*
%TO.P,5V1,8,Pin_8*%
X80240000Y-73840000D03*
%TD*%
D12*
%TO.P,J5,1,Pin_1*%
%TO.N,SCL*%
X88125000Y-62340000D03*
D13*
%TO.P,J5,2,Pin_2*%
%TO.N,/SDA*%
X90665000Y-62340000D03*
%TD*%
D12*
%TO.P,G1,1,Pin_1*%
%TO.N,GND*%
X77680000Y-56060000D03*
D13*
%TO.P,G1,2,Pin_2*%
X77680000Y-58600000D03*
%TO.P,G1,3,Pin_3*%
X77680000Y-61140000D03*
%TO.P,G1,4,Pin_4*%
X77680000Y-63680000D03*
%TO.P,G1,5,Pin_5*%
X77680000Y-66220000D03*
%TO.P,G1,6,Pin_6*%
X77680000Y-68760000D03*
%TO.P,G1,7,Pin_7*%
X77680000Y-71300000D03*
%TO.P,G1,8,Pin_8*%
X77680000Y-73840000D03*
%TD*%
D14*
%TO.N,GND*%
X100000000Y-69100000D03*
X94000000Y-67870000D03*
X98600000Y-63500000D03*
X130000000Y-62400000D03*
X97700000Y-67900000D03*
X96000000Y-63400000D03*
X115000000Y-61000000D03*
X99600000Y-61700000D03*
%TO.N,5V*%
X100240000Y-72170000D03*
X81200000Y-76910000D03*
%TO.N,+3V3*%
X89350000Y-78900000D03*
X98155000Y-73500000D03*
X93500000Y-48500000D03*
X92250000Y-67700000D03*
X92950000Y-78900000D03*
X122682000Y-46812200D03*
X89863800Y-55700000D03*
X116504800Y-75389600D03*
X97600000Y-63200000D03*
X87650000Y-67700000D03*
X87790000Y-65690000D03*
%TO.N,/Header_18*%
X85100000Y-73800000D03*
X97800000Y-61200000D03*
%TO.N,/Header_9*%
X102100000Y-66200000D03*
%TO.N,/Header_10*%
X103200000Y-61600000D03*
%TO.N,/RGB_SDI*%
X100712299Y-65112299D03*
X99724500Y-63100000D03*
%TD*%
D15*
%TO.N,GND*%
X97024511Y-62375489D02*
X100075489Y-62375489D01*
X96000000Y-63400000D02*
X97024511Y-62375489D01*
X97700000Y-67900000D02*
X98900000Y-69100000D01*
X94030000Y-67900000D02*
X97700000Y-67900000D01*
X98600000Y-63199886D02*
X99424397Y-62375489D01*
X98900000Y-69100000D02*
X100000000Y-69100000D01*
X99424397Y-62375489D02*
X100075489Y-62375489D01*
X100075489Y-62175489D02*
X100075489Y-62375489D01*
X115000000Y-61000000D02*
X128600000Y-61000000D01*
X98600000Y-63500000D02*
X98600000Y-63199886D01*
X94000000Y-67870000D02*
X94030000Y-67900000D01*
X128600000Y-61000000D02*
X130000000Y-62400000D01*
X99600000Y-61700000D02*
X100075489Y-62175489D01*
D16*
%TO.N,5V*%
X90315386Y-76910000D02*
X81200000Y-76910000D01*
X100240000Y-72170000D02*
X95055386Y-72170000D01*
X95055386Y-72170000D02*
X90315386Y-76910000D01*
D15*
%TO.N,/Header_18*%
X85100000Y-72700000D02*
X85100000Y-73800000D01*
X96600000Y-61200000D02*
X85100000Y-72700000D01*
X97800000Y-61200000D02*
X96600000Y-61200000D01*
%TO.N,/Header_9*%
X108560000Y-59740000D02*
X131200000Y-59740000D01*
X102100000Y-66200000D02*
X108560000Y-59740000D01*
%TO.N,/Header_10*%
X103200000Y-61600000D02*
X107600000Y-57200000D01*
X107600000Y-57200000D02*
X131200000Y-57200000D01*
%TO.N,/RGB_SDI*%
X99724500Y-64124500D02*
X100712299Y-65112299D01*
X99724500Y-63100000D02*
X99724500Y-64124500D01*
%TD*%
%TA.AperFunction,Conductor*%
%TO.N,+3V3*%
G36*
X134052266Y-43507443D02*
G01*
X134074110Y-43509440D01*
X134171887Y-43527066D01*
X134237847Y-43538956D01*
X134259021Y-43544714D01*
X134415159Y-43602190D01*
X134435013Y-43611535D01*
X134578809Y-43695228D01*
X134596732Y-43707869D01*
X134723836Y-43815247D01*
X134739297Y-43830810D01*
X134845835Y-43958602D01*
X134858366Y-43976617D01*
X134941115Y-44120953D01*
X134950330Y-44140867D01*
X135006785Y-44297376D01*
X135012405Y-44318588D01*
X135031625Y-44429348D01*
X135040850Y-44482513D01*
X135042705Y-44504379D01*
X135042277Y-44670756D01*
X135040310Y-44692611D01*
X135016565Y-44825404D01*
X135013028Y-44840059D01*
X135012535Y-44841671D01*
X135008719Y-44849800D01*
X135007908Y-44855009D01*
X135005763Y-44859830D01*
X135004563Y-44868728D01*
X135004562Y-44868730D01*
X134996888Y-44925614D01*
X134996521Y-44928142D01*
X134991500Y-44960386D01*
X134991500Y-44964469D01*
X134990968Y-44969490D01*
X134986288Y-45004180D01*
X134987633Y-45013056D01*
X134990078Y-45029192D01*
X134991500Y-45048069D01*
X134991500Y-78515534D01*
X134990000Y-78534919D01*
X134986309Y-78558625D01*
X134987473Y-78567527D01*
X134988566Y-78575888D01*
X134989402Y-78599785D01*
X134976420Y-78815707D01*
X134974608Y-78830723D01*
X134930940Y-79070470D01*
X134927341Y-79085160D01*
X134867285Y-79279116D01*
X134855263Y-79317943D01*
X134849930Y-79332096D01*
X134750481Y-79554558D01*
X134743491Y-79567971D01*
X134618097Y-79776924D01*
X134609553Y-79789399D01*
X134460014Y-79981837D01*
X134450047Y-79993184D01*
X134278542Y-80166302D01*
X134267272Y-80176389D01*
X134076258Y-80327711D01*
X134063860Y-80336374D01*
X133856102Y-80463711D01*
X133842756Y-80470827D01*
X133840334Y-80471937D01*
X133621217Y-80572362D01*
X133607126Y-80577823D01*
X133446378Y-80629251D01*
X133435973Y-80632580D01*
X133397541Y-80638572D01*
X130228385Y-80637610D01*
X109778481Y-80631402D01*
X109710367Y-80611379D01*
X109663890Y-80557709D01*
X109653808Y-80487432D01*
X109656896Y-80473616D01*
X109657700Y-80471684D01*
X109658919Y-80465641D01*
X109695867Y-80282396D01*
X109695867Y-80282395D01*
X109696792Y-80277808D01*
X109697100Y-80271728D01*
X109697100Y-79479072D01*
X109696792Y-79472992D01*
X109672855Y-79354278D01*
X109658918Y-79285155D01*
X109658917Y-79285152D01*
X109657700Y-79279116D01*
X109581695Y-79096527D01*
X109578268Y-79091408D01*
X109578266Y-79091404D01*
X109475104Y-78937301D01*
X109475100Y-78937296D01*
X109471673Y-78932177D01*
X109331823Y-78792327D01*
X109326704Y-78788900D01*
X109326699Y-78788896D01*
X109172596Y-78685734D01*
X109172592Y-78685732D01*
X109167473Y-78682305D01*
X108984884Y-78606300D01*
X108978848Y-78605083D01*
X108978845Y-78605082D01*
X108795596Y-78568133D01*
X108795595Y-78568133D01*
X108791008Y-78567208D01*
X108784928Y-78566900D01*
X108592272Y-78566900D01*
X108586192Y-78567208D01*
X108581605Y-78568133D01*
X108581604Y-78568133D01*
X108398355Y-78605082D01*
X108398352Y-78605083D01*
X108392316Y-78606300D01*
X108209727Y-78682305D01*
X108204608Y-78685732D01*
X108204604Y-78685734D01*
X108050501Y-78788896D01*
X108050496Y-78788900D01*
X108045377Y-78792327D01*
X107905527Y-78932177D01*
X107902100Y-78937296D01*
X107902096Y-78937301D01*
X107798934Y-79091404D01*
X107798932Y-79091408D01*
X107795505Y-79096527D01*
X107719500Y-79279116D01*
X107718283Y-79285152D01*
X107718282Y-79285155D01*
X107704345Y-79354278D01*
X107680408Y-79472992D01*
X107680100Y-79479072D01*
X107680100Y-80271728D01*
X107680408Y-80277808D01*
X107681333Y-80282395D01*
X107681333Y-80282396D01*
X107718282Y-80465646D01*
X107718284Y-80465651D01*
X107718986Y-80469133D01*
X107719500Y-80471684D01*
X107719015Y-80471782D01*
X107719761Y-80538894D01*
X107682043Y-80599042D01*
X107617794Y-80629251D01*
X107598440Y-80630740D01*
X105177754Y-80630005D01*
X101139282Y-80628780D01*
X101071168Y-80608757D01*
X101024691Y-80555088D01*
X101014609Y-80484810D01*
X101017361Y-80472497D01*
X101017700Y-80471684D01*
X101056792Y-80277808D01*
X101057100Y-80271728D01*
X101057100Y-79479072D01*
X101056792Y-79472992D01*
X101032855Y-79354278D01*
X101018918Y-79285155D01*
X101018917Y-79285152D01*
X101017700Y-79279116D01*
X100941695Y-79096527D01*
X100938268Y-79091408D01*
X100938266Y-79091404D01*
X100835104Y-78937301D01*
X100835100Y-78937296D01*
X100831673Y-78932177D01*
X100691823Y-78792327D01*
X100686704Y-78788900D01*
X100686699Y-78788896D01*
X100532596Y-78685734D01*
X100532592Y-78685732D01*
X100527473Y-78682305D01*
X100344884Y-78606300D01*
X100338848Y-78605083D01*
X100338845Y-78605082D01*
X100155596Y-78568133D01*
X100155595Y-78568133D01*
X100151008Y-78567208D01*
X100144928Y-78566900D01*
X99952272Y-78566900D01*
X99946192Y-78567208D01*
X99941605Y-78568133D01*
X99941604Y-78568133D01*
X99758355Y-78605082D01*
X99758352Y-78605083D01*
X99752316Y-78606300D01*
X99569727Y-78682305D01*
X99564608Y-78685732D01*
X99564604Y-78685734D01*
X99410501Y-78788896D01*
X99410496Y-78788900D01*
X99405377Y-78792327D01*
X99265527Y-78932177D01*
X99262100Y-78937296D01*
X99262096Y-78937301D01*
X99158934Y-79091404D01*
X99158932Y-79091408D01*
X99155505Y-79096527D01*
X99079500Y-79279116D01*
X99078283Y-79285152D01*
X99078282Y-79285155D01*
X99064345Y-79354278D01*
X99040408Y-79472992D01*
X99040100Y-79479072D01*
X99040100Y-80271728D01*
X99040408Y-80277808D01*
X99041333Y-80282395D01*
X99041333Y-80282396D01*
X99079500Y-80471684D01*
X99078245Y-80471937D01*
X99078958Y-80536272D01*
X99041240Y-80596420D01*
X98976990Y-80626628D01*
X98957638Y-80628117D01*
X77181023Y-80621506D01*
X77172998Y-80621248D01*
X77155506Y-80620127D01*
X77119865Y-80617841D01*
X77107314Y-80620654D01*
X77080229Y-80623701D01*
X76976901Y-80624079D01*
X76918361Y-80624293D01*
X76896600Y-80622480D01*
X76840968Y-80612938D01*
X76714492Y-80591243D01*
X76693381Y-80585703D01*
X76553130Y-80535554D01*
X76519401Y-80523493D01*
X76499554Y-80514387D01*
X76338927Y-80423071D01*
X76320950Y-80410674D01*
X76178510Y-80293003D01*
X76162942Y-80277688D01*
X76042952Y-80137182D01*
X76030264Y-80119410D01*
X76010180Y-80085388D01*
X75936340Y-79960305D01*
X75926911Y-79940612D01*
X75861867Y-79767670D01*
X75855980Y-79746642D01*
X75821772Y-79565073D01*
X75819604Y-79543342D01*
X75817639Y-79388347D01*
X75819410Y-79371997D01*
X75819011Y-79371963D01*
X75819785Y-79363020D01*
X75821818Y-79354278D01*
X75818692Y-79298464D01*
X75818495Y-79291455D01*
X75817800Y-76910000D01*
X80286496Y-76910000D01*
X80287186Y-76916565D01*
X80304564Y-77081904D01*
X80306458Y-77099928D01*
X80365473Y-77281556D01*
X80368776Y-77287278D01*
X80368777Y-77287279D01*
X80378329Y-77303823D01*
X80460960Y-77446944D01*
X80465378Y-77451851D01*
X80465379Y-77451852D01*
X80525861Y-77519024D01*
X80588747Y-77588866D01*
X80683904Y-77658002D01*
X80717773Y-77682609D01*
X80743248Y-77701118D01*
X80749276Y-77703802D01*
X80749278Y-77703803D01*
X80911681Y-77776109D01*
X80917712Y-77778794D01*
X81011113Y-77798647D01*
X81098056Y-77817128D01*
X81098061Y-77817128D01*
X81104513Y-77818500D01*
X81295487Y-77818500D01*
X81301939Y-77817128D01*
X81301944Y-77817128D01*
X81388887Y-77798647D01*
X81482288Y-77778794D01*
X81593245Y-77729393D01*
X81644494Y-77718500D01*
X90306172Y-77718500D01*
X90307492Y-77718507D01*
X90397607Y-77719451D01*
X90439983Y-77710289D01*
X90452549Y-77708231D01*
X90495641Y-77703397D01*
X90502292Y-77701081D01*
X90502296Y-77701080D01*
X90527316Y-77692367D01*
X90542128Y-77688204D01*
X90568005Y-77682609D01*
X90574896Y-77681119D01*
X90614199Y-77662792D01*
X90625975Y-77658010D01*
X90666938Y-77643745D01*
X90672913Y-77640011D01*
X90672916Y-77640010D01*
X90695381Y-77625973D01*
X90708898Y-77618634D01*
X90732900Y-77607441D01*
X90732901Y-77607440D01*
X90739288Y-77604462D01*
X90773539Y-77577894D01*
X90783998Y-77570598D01*
X90814790Y-77551358D01*
X90814793Y-77551356D01*
X90820762Y-77547626D01*
X90849565Y-77519024D01*
X90850190Y-77518439D01*
X90850856Y-77517922D01*
X90876846Y-77491932D01*
X90949468Y-77419815D01*
X90950126Y-77418778D01*
X90951229Y-77417549D01*
X91977050Y-76391728D01*
X99040100Y-76391728D01*
X99040408Y-76397808D01*
X99041333Y-76402395D01*
X99041333Y-76402396D01*
X99064166Y-76515633D01*
X99079500Y-76591684D01*
X99155505Y-76774273D01*
X99158932Y-76779392D01*
X99158934Y-76779396D01*
X99262096Y-76933499D01*
X99262100Y-76933504D01*
X99265527Y-76938623D01*
X99405377Y-77078473D01*
X99410496Y-77081900D01*
X99410501Y-77081904D01*
X99564604Y-77185066D01*
X99564608Y-77185068D01*
X99569727Y-77188495D01*
X99752316Y-77264500D01*
X99758352Y-77265717D01*
X99758355Y-77265718D01*
X99941604Y-77302667D01*
X99946192Y-77303592D01*
X99952272Y-77303900D01*
X100144928Y-77303900D01*
X100151008Y-77303592D01*
X100155596Y-77302667D01*
X100338845Y-77265718D01*
X100338848Y-77265717D01*
X100344884Y-77264500D01*
X100527473Y-77188495D01*
X100532592Y-77185068D01*
X100532596Y-77185066D01*
X100686699Y-77081904D01*
X100686704Y-77081900D01*
X100691823Y-77078473D01*
X100831673Y-76938623D01*
X100835100Y-76933504D01*
X100835104Y-76933499D01*
X100938266Y-76779396D01*
X100938268Y-76779392D01*
X100941695Y-76774273D01*
X100944064Y-76768582D01*
X100944066Y-76768579D01*
X100950568Y-76752958D01*
X100995212Y-76697755D01*
X101062615Y-76675452D01*
X101131375Y-76693130D01*
X101143595Y-76701416D01*
X101178367Y-76728098D01*
X101318364Y-76786087D01*
X101430880Y-76800900D01*
X101506320Y-76800900D01*
X101618836Y-76786087D01*
X101758833Y-76728098D01*
X101879051Y-76635851D01*
X101971298Y-76515633D01*
X102029287Y-76375636D01*
X102049066Y-76225400D01*
X106688134Y-76225400D01*
X106707913Y-76375636D01*
X106765902Y-76515633D01*
X106858149Y-76635851D01*
X106978367Y-76728098D01*
X107118364Y-76786087D01*
X107230880Y-76800900D01*
X107306320Y-76800900D01*
X107418836Y-76786087D01*
X107558833Y-76728098D01*
X107593604Y-76701417D01*
X107659824Y-76675816D01*
X107729373Y-76690080D01*
X107780169Y-76739681D01*
X107786632Y-76752958D01*
X107793134Y-76768579D01*
X107793136Y-76768582D01*
X107795505Y-76774273D01*
X107798932Y-76779392D01*
X107798934Y-76779396D01*
X107902096Y-76933499D01*
X107902100Y-76933504D01*
X107905527Y-76938623D01*
X108045377Y-77078473D01*
X108050496Y-77081900D01*
X108050501Y-77081904D01*
X108204604Y-77185066D01*
X108204608Y-77185068D01*
X108209727Y-77188495D01*
X108392316Y-77264500D01*
X108398352Y-77265717D01*
X108398355Y-77265718D01*
X108581604Y-77302667D01*
X108586192Y-77303592D01*
X108592272Y-77303900D01*
X108784928Y-77303900D01*
X108791008Y-77303592D01*
X108795596Y-77302667D01*
X108978845Y-77265718D01*
X108978848Y-77265717D01*
X108984884Y-77264500D01*
X109167473Y-77188495D01*
X109172592Y-77185068D01*
X109172596Y-77185066D01*
X109326699Y-77081904D01*
X109326704Y-77081900D01*
X109331823Y-77078473D01*
X109471673Y-76938623D01*
X109475100Y-76933504D01*
X109475104Y-76933499D01*
X109578266Y-76779396D01*
X109578268Y-76779392D01*
X109581695Y-76774273D01*
X109657700Y-76591684D01*
X109673035Y-76515633D01*
X109695867Y-76402396D01*
X109695867Y-76402395D01*
X109696792Y-76397808D01*
X109697100Y-76391728D01*
X109697100Y-74999072D01*
X109696792Y-74992992D01*
X109674850Y-74884171D01*
X109658918Y-74805155D01*
X109658917Y-74805152D01*
X109657700Y-74799116D01*
X109581695Y-74616527D01*
X109578268Y-74611408D01*
X109578266Y-74611404D01*
X109475104Y-74457301D01*
X109475100Y-74457296D01*
X109471673Y-74452177D01*
X109331823Y-74312327D01*
X109326704Y-74308900D01*
X109326699Y-74308896D01*
X109172596Y-74205734D01*
X109172592Y-74205732D01*
X109167473Y-74202305D01*
X108984884Y-74126300D01*
X108978848Y-74125083D01*
X108978845Y-74125082D01*
X108795596Y-74088133D01*
X108795595Y-74088133D01*
X108791008Y-74087208D01*
X108784928Y-74086900D01*
X108592272Y-74086900D01*
X108586192Y-74087208D01*
X108581605Y-74088133D01*
X108581604Y-74088133D01*
X108398355Y-74125082D01*
X108398352Y-74125083D01*
X108392316Y-74126300D01*
X108209727Y-74202305D01*
X108204608Y-74205732D01*
X108204604Y-74205734D01*
X108050501Y-74308896D01*
X108050496Y-74308900D01*
X108045377Y-74312327D01*
X107905527Y-74452177D01*
X107902100Y-74457296D01*
X107902096Y-74457301D01*
X107798934Y-74611404D01*
X107798932Y-74611408D01*
X107795505Y-74616527D01*
X107719500Y-74799116D01*
X107718283Y-74805152D01*
X107718282Y-74805155D01*
X107702350Y-74884171D01*
X107680408Y-74992992D01*
X107680100Y-74999072D01*
X107680100Y-75584360D01*
X107660098Y-75652481D01*
X107606442Y-75698974D01*
X107536168Y-75709078D01*
X107505885Y-75700770D01*
X107418836Y-75664713D01*
X107306320Y-75649900D01*
X107230880Y-75649900D01*
X107118364Y-75664713D01*
X106978367Y-75722702D01*
X106858149Y-75814949D01*
X106765902Y-75935167D01*
X106707913Y-76075164D01*
X106688134Y-76225400D01*
X102049066Y-76225400D01*
X102029287Y-76075164D01*
X101971298Y-75935167D01*
X101879051Y-75814949D01*
X101758833Y-75722702D01*
X101618836Y-75664713D01*
X101506320Y-75649900D01*
X101430880Y-75649900D01*
X101318364Y-75664713D01*
X101231317Y-75700769D01*
X101160729Y-75708358D01*
X101097242Y-75676579D01*
X101061014Y-75615521D01*
X101057100Y-75584360D01*
X101057100Y-74999072D01*
X101056792Y-74992992D01*
X101034850Y-74884171D01*
X101018918Y-74805155D01*
X101018917Y-74805152D01*
X101017700Y-74799116D01*
X100941695Y-74616527D01*
X100938268Y-74611408D01*
X100938266Y-74611404D01*
X100835104Y-74457301D01*
X100835100Y-74457296D01*
X100831673Y-74452177D01*
X100691823Y-74312327D01*
X100686704Y-74308900D01*
X100686699Y-74308896D01*
X100532596Y-74205734D01*
X100532592Y-74205732D01*
X100527473Y-74202305D01*
X100344884Y-74126300D01*
X100338848Y-74125083D01*
X100338845Y-74125082D01*
X100155596Y-74088133D01*
X100155595Y-74088133D01*
X100151008Y-74087208D01*
X100144928Y-74086900D01*
X99952272Y-74086900D01*
X99946192Y-74087208D01*
X99941605Y-74088133D01*
X99941604Y-74088133D01*
X99758355Y-74125082D01*
X99758352Y-74125083D01*
X99752316Y-74126300D01*
X99569727Y-74202305D01*
X99564608Y-74205732D01*
X99564604Y-74205734D01*
X99410501Y-74308896D01*
X99410496Y-74308900D01*
X99405377Y-74312327D01*
X99265527Y-74452177D01*
X99262100Y-74457296D01*
X99262096Y-74457301D01*
X99158934Y-74611404D01*
X99158932Y-74611408D01*
X99155505Y-74616527D01*
X99079500Y-74799116D01*
X99078283Y-74805152D01*
X99078282Y-74805155D01*
X99062350Y-74884171D01*
X99040408Y-74992992D01*
X99040100Y-74999072D01*
X99040100Y-76391728D01*
X91977050Y-76391728D01*
X95353373Y-73015405D01*
X95415685Y-72981379D01*
X95442468Y-72978500D01*
X99795506Y-72978500D01*
X99846755Y-72989393D01*
X99903358Y-73014594D01*
X99957712Y-73038794D01*
X100051112Y-73058647D01*
X100138056Y-73077128D01*
X100138061Y-73077128D01*
X100144513Y-73078500D01*
X100335487Y-73078500D01*
X100341939Y-73077128D01*
X100341944Y-73077128D01*
X100428888Y-73058647D01*
X100522288Y-73038794D01*
X100574821Y-73015405D01*
X100690722Y-72963803D01*
X100690724Y-72963802D01*
X100696752Y-72961118D01*
X100851253Y-72848866D01*
X100979040Y-72706944D01*
X101074527Y-72541556D01*
X101133542Y-72359928D01*
X101136517Y-72331628D01*
X101152814Y-72176565D01*
X101153504Y-72170000D01*
X101133542Y-71980072D01*
X101074527Y-71798444D01*
X101070698Y-71791811D01*
X100996014Y-71662456D01*
X100979040Y-71633056D01*
X100924911Y-71572939D01*
X100855675Y-71496045D01*
X100855674Y-71496044D01*
X100851253Y-71491134D01*
X100752157Y-71419136D01*
X100702094Y-71382763D01*
X100702093Y-71382762D01*
X100696752Y-71378882D01*
X100690724Y-71376198D01*
X100690722Y-71376197D01*
X100528319Y-71303891D01*
X100528318Y-71303891D01*
X100522288Y-71301206D01*
X100428887Y-71281353D01*
X100341944Y-71262872D01*
X100341939Y-71262872D01*
X100335487Y-71261500D01*
X100144513Y-71261500D01*
X100138061Y-71262872D01*
X100138056Y-71262872D01*
X100051113Y-71281353D01*
X99957712Y-71301206D01*
X99951682Y-71303891D01*
X99951681Y-71303891D01*
X99846755Y-71350607D01*
X99795506Y-71361500D01*
X95064551Y-71361500D01*
X95063232Y-71361493D01*
X94973165Y-71360550D01*
X94966279Y-71362039D01*
X94966277Y-71362039D01*
X94947699Y-71366056D01*
X94930800Y-71369710D01*
X94918221Y-71371770D01*
X94882127Y-71375818D01*
X94882124Y-71375819D01*
X94875131Y-71376603D01*
X94857442Y-71382763D01*
X94843454Y-71387634D01*
X94828644Y-71391796D01*
X94802764Y-71397391D01*
X94802760Y-71397392D01*
X94795875Y-71398881D01*
X94789491Y-71401858D01*
X94789485Y-71401860D01*
X94756579Y-71417204D01*
X94744770Y-71421999D01*
X94703834Y-71436255D01*
X94697862Y-71439987D01*
X94697855Y-71439990D01*
X94675391Y-71454027D01*
X94661874Y-71461366D01*
X94637867Y-71472561D01*
X94637863Y-71472563D01*
X94631484Y-71475538D01*
X94619870Y-71484547D01*
X94597230Y-71502108D01*
X94586781Y-71509397D01*
X94550010Y-71532374D01*
X94545011Y-71537339D01*
X94545009Y-71537340D01*
X94521201Y-71560983D01*
X94520578Y-71561566D01*
X94519916Y-71562079D01*
X94494069Y-71587926D01*
X94421304Y-71660185D01*
X94420645Y-71661223D01*
X94419539Y-71662456D01*
X90017399Y-76064595D01*
X89955087Y-76098621D01*
X89928304Y-76101500D01*
X81644494Y-76101500D01*
X81593245Y-76090607D01*
X81488319Y-76043891D01*
X81488318Y-76043891D01*
X81482288Y-76041206D01*
X81388888Y-76021353D01*
X81301944Y-76002872D01*
X81301939Y-76002872D01*
X81295487Y-76001500D01*
X81104513Y-76001500D01*
X81098061Y-76002872D01*
X81098056Y-76002872D01*
X81011112Y-76021353D01*
X80917712Y-76041206D01*
X80911682Y-76043891D01*
X80911681Y-76043891D01*
X80749278Y-76116197D01*
X80749276Y-76116198D01*
X80743248Y-76118882D01*
X80588747Y-76231134D01*
X80460960Y-76373056D01*
X80444021Y-76402396D01*
X80374860Y-76522186D01*
X80365473Y-76538444D01*
X80306458Y-76720072D01*
X80305768Y-76726633D01*
X80305768Y-76726635D01*
X80299406Y-76787165D01*
X80286496Y-76910000D01*
X75817800Y-76910000D01*
X75816894Y-73806695D01*
X76317251Y-73806695D01*
X76317548Y-73811848D01*
X76317548Y-73811851D01*
X76327816Y-73989928D01*
X76330110Y-74029715D01*
X76331247Y-74034761D01*
X76331248Y-74034767D01*
X76343067Y-74087208D01*
X76379222Y-74247639D01*
X76463266Y-74454616D01*
X76486378Y-74492332D01*
X76571163Y-74630688D01*
X76579987Y-74645088D01*
X76726250Y-74813938D01*
X76898126Y-74956632D01*
X77091000Y-75069338D01*
X77299692Y-75149030D01*
X77304760Y-75150061D01*
X77304763Y-75150062D01*
X77370165Y-75163368D01*
X77518597Y-75193567D01*
X77523772Y-75193757D01*
X77523774Y-75193757D01*
X77736673Y-75201564D01*
X77736677Y-75201564D01*
X77741837Y-75201753D01*
X77746957Y-75201097D01*
X77746959Y-75201097D01*
X77958288Y-75174025D01*
X77958289Y-75174025D01*
X77963416Y-75173368D01*
X77994558Y-75164025D01*
X78172429Y-75110661D01*
X78172434Y-75110659D01*
X78177384Y-75109174D01*
X78377994Y-75010896D01*
X78559860Y-74881173D01*
X78718096Y-74723489D01*
X78722661Y-74717137D01*
X78845435Y-74546277D01*
X78848453Y-74542077D01*
X78850746Y-74537438D01*
X78853405Y-74533012D01*
X78855127Y-74534047D01*
X78897400Y-74488171D01*
X78966100Y-74470259D01*
X79033578Y-74492332D01*
X79069685Y-74530365D01*
X79071941Y-74534047D01*
X79131163Y-74630688D01*
X79139987Y-74645088D01*
X79286250Y-74813938D01*
X79458126Y-74956632D01*
X79651000Y-75069338D01*
X79859692Y-75149030D01*
X79864760Y-75150061D01*
X79864763Y-75150062D01*
X79930165Y-75163368D01*
X80078597Y-75193567D01*
X80083772Y-75193757D01*
X80083774Y-75193757D01*
X80296673Y-75201564D01*
X80296677Y-75201564D01*
X80301837Y-75201753D01*
X80306957Y-75201097D01*
X80306959Y-75201097D01*
X80518288Y-75174025D01*
X80518289Y-75174025D01*
X80523416Y-75173368D01*
X80554558Y-75164025D01*
X80732429Y-75110661D01*
X80732434Y-75110659D01*
X80737384Y-75109174D01*
X80937994Y-75010896D01*
X81119860Y-74881173D01*
X81278096Y-74723489D01*
X81282661Y-74717137D01*
X81405435Y-74546277D01*
X81408453Y-74542077D01*
X81412032Y-74534835D01*
X81412830Y-74533969D01*
X81413405Y-74533012D01*
X81413603Y-74533131D01*
X81460148Y-74482629D01*
X81528850Y-74464724D01*
X81596325Y-74486805D01*
X81632421Y-74524830D01*
X81699987Y-74635088D01*
X81846250Y-74803938D01*
X82018126Y-74946632D01*
X82211000Y-75059338D01*
X82215825Y-75061180D01*
X82215826Y-75061181D01*
X82288612Y-75088975D01*
X82419692Y-75139030D01*
X82424760Y-75140061D01*
X82424763Y-75140062D01*
X82532017Y-75161883D01*
X82638597Y-75183567D01*
X82643772Y-75183757D01*
X82643774Y-75183757D01*
X82856673Y-75191564D01*
X82856677Y-75191564D01*
X82861837Y-75191753D01*
X82866957Y-75191097D01*
X82866959Y-75191097D01*
X83078288Y-75164025D01*
X83078289Y-75164025D01*
X83083416Y-75163368D01*
X83131207Y-75149030D01*
X83292429Y-75100661D01*
X83292434Y-75100659D01*
X83297384Y-75099174D01*
X83497994Y-75000896D01*
X83679860Y-74871173D01*
X83838096Y-74713489D01*
X83870213Y-74668794D01*
X83965435Y-74536277D01*
X83968453Y-74532077D01*
X83992833Y-74482749D01*
X84065136Y-74336453D01*
X84065137Y-74336451D01*
X84067430Y-74331811D01*
X84083175Y-74279989D01*
X84122116Y-74220625D01*
X84186970Y-74191738D01*
X84257146Y-74202500D01*
X84312851Y-74253617D01*
X84360960Y-74336944D01*
X84365378Y-74341851D01*
X84365379Y-74341852D01*
X84480997Y-74470259D01*
X84488747Y-74478866D01*
X84643248Y-74591118D01*
X84649276Y-74593802D01*
X84649278Y-74593803D01*
X84764467Y-74645088D01*
X84817712Y-74668794D01*
X84911112Y-74688647D01*
X84998056Y-74707128D01*
X84998061Y-74707128D01*
X85004513Y-74708500D01*
X85195487Y-74708500D01*
X85201939Y-74707128D01*
X85201944Y-74707128D01*
X85288888Y-74688647D01*
X85382288Y-74668794D01*
X85435533Y-74645088D01*
X85550722Y-74593803D01*
X85550724Y-74593802D01*
X85556752Y-74591118D01*
X85711253Y-74478866D01*
X85719003Y-74470259D01*
X85834621Y-74341852D01*
X85834622Y-74341851D01*
X85839040Y-74336944D01*
X85914794Y-74205734D01*
X85931223Y-74177279D01*
X85931224Y-74177278D01*
X85934527Y-74171556D01*
X85993542Y-73989928D01*
X86013504Y-73800000D01*
X85993542Y-73610072D01*
X85934527Y-73428444D01*
X85839040Y-73263056D01*
X85765863Y-73181785D01*
X85735147Y-73117779D01*
X85733500Y-73097476D01*
X85733500Y-73014594D01*
X85753502Y-72946473D01*
X85770405Y-72925499D01*
X90825905Y-67870000D01*
X93086496Y-67870000D01*
X93106458Y-68059928D01*
X93165473Y-68241556D01*
X93260960Y-68406944D01*
X93265378Y-68411851D01*
X93265379Y-68411852D01*
X93314584Y-68466500D01*
X93388747Y-68548866D01*
X93543248Y-68661118D01*
X93549276Y-68663802D01*
X93549278Y-68663803D01*
X93711681Y-68736109D01*
X93717712Y-68738794D01*
X93786263Y-68753365D01*
X93898056Y-68777128D01*
X93898061Y-68777128D01*
X93904513Y-68778500D01*
X94095487Y-68778500D01*
X94101939Y-68777128D01*
X94101944Y-68777128D01*
X94213737Y-68753365D01*
X94282288Y-68738794D01*
X94288319Y-68736109D01*
X94450722Y-68663803D01*
X94450724Y-68663802D01*
X94456752Y-68661118D01*
X94599282Y-68557564D01*
X94666148Y-68533706D01*
X94673342Y-68533500D01*
X96991800Y-68533500D01*
X97059921Y-68553502D01*
X97079147Y-68569843D01*
X97079420Y-68569540D01*
X97084332Y-68573963D01*
X97088747Y-68578866D01*
X97243248Y-68691118D01*
X97249276Y-68693802D01*
X97249278Y-68693803D01*
X97411681Y-68766109D01*
X97417712Y-68768794D01*
X97511112Y-68788647D01*
X97598056Y-68807128D01*
X97598061Y-68807128D01*
X97604513Y-68808500D01*
X97660406Y-68808500D01*
X97728527Y-68828502D01*
X97749501Y-68845405D01*
X98396343Y-69492247D01*
X98403887Y-69500537D01*
X98408000Y-69507018D01*
X98413777Y-69512443D01*
X98457667Y-69553658D01*
X98460509Y-69556413D01*
X98480230Y-69576134D01*
X98483425Y-69578612D01*
X98492447Y-69586318D01*
X98524679Y-69616586D01*
X98531628Y-69620406D01*
X98542432Y-69626346D01*
X98558956Y-69637199D01*
X98574959Y-69649613D01*
X98615543Y-69667176D01*
X98626173Y-69672383D01*
X98664940Y-69693695D01*
X98672617Y-69695666D01*
X98672622Y-69695668D01*
X98684558Y-69698732D01*
X98703266Y-69705137D01*
X98721855Y-69713181D01*
X98729683Y-69714421D01*
X98729690Y-69714423D01*
X98765524Y-69720099D01*
X98777144Y-69722505D01*
X98812289Y-69731528D01*
X98819970Y-69733500D01*
X98840224Y-69733500D01*
X98859934Y-69735051D01*
X98879943Y-69738220D01*
X98887835Y-69737474D01*
X98923961Y-69734059D01*
X98935819Y-69733500D01*
X99291800Y-69733500D01*
X99359921Y-69753502D01*
X99379147Y-69769843D01*
X99379420Y-69769540D01*
X99384332Y-69773963D01*
X99388747Y-69778866D01*
X99543248Y-69891118D01*
X99549276Y-69893802D01*
X99549278Y-69893803D01*
X99687889Y-69955516D01*
X99717712Y-69968794D01*
X99811112Y-69988647D01*
X99898056Y-70007128D01*
X99898061Y-70007128D01*
X99904513Y-70008500D01*
X100095487Y-70008500D01*
X100101939Y-70007128D01*
X100101944Y-70007128D01*
X100188888Y-69988647D01*
X100282288Y-69968794D01*
X100312111Y-69955516D01*
X100450722Y-69893803D01*
X100450724Y-69893802D01*
X100456752Y-69891118D01*
X100611253Y-69778866D01*
X100647851Y-69738220D01*
X100734621Y-69641852D01*
X100734622Y-69641851D01*
X100739040Y-69636944D01*
X100814053Y-69507018D01*
X100831223Y-69477279D01*
X100831224Y-69477278D01*
X100834527Y-69471556D01*
X100893542Y-69289928D01*
X100900944Y-69219507D01*
X100912814Y-69106565D01*
X100913504Y-69100000D01*
X100897709Y-68949715D01*
X100894232Y-68916635D01*
X100894232Y-68916633D01*
X100893542Y-68910072D01*
X100834527Y-68728444D01*
X100739040Y-68563056D01*
X100721842Y-68543955D01*
X100615675Y-68426045D01*
X100615674Y-68426044D01*
X100611253Y-68421134D01*
X100456752Y-68308882D01*
X100450724Y-68306198D01*
X100450722Y-68306197D01*
X100288319Y-68233891D01*
X100288318Y-68233891D01*
X100282288Y-68231206D01*
X100188887Y-68211353D01*
X100101944Y-68192872D01*
X100101939Y-68192872D01*
X100095487Y-68191500D01*
X99904513Y-68191500D01*
X99898061Y-68192872D01*
X99898056Y-68192872D01*
X99811113Y-68211353D01*
X99717712Y-68231206D01*
X99711682Y-68233891D01*
X99711681Y-68233891D01*
X99549278Y-68306197D01*
X99549276Y-68306198D01*
X99543248Y-68308882D01*
X99388747Y-68421134D01*
X99384332Y-68426037D01*
X99379420Y-68430460D01*
X99378295Y-68429211D01*
X99324986Y-68462051D01*
X99291800Y-68466500D01*
X99214595Y-68466500D01*
X99146474Y-68446498D01*
X99125500Y-68429595D01*
X98647122Y-67951217D01*
X98613096Y-67888905D01*
X98610907Y-67875292D01*
X98594232Y-67716635D01*
X98594232Y-67716633D01*
X98593542Y-67710072D01*
X98534527Y-67528444D01*
X98517207Y-67498444D01*
X98488855Y-67449338D01*
X98439040Y-67363056D01*
X98417177Y-67338774D01*
X98315675Y-67226045D01*
X98315674Y-67226044D01*
X98311253Y-67221134D01*
X98156752Y-67108882D01*
X98150724Y-67106198D01*
X98150722Y-67106197D01*
X97988319Y-67033891D01*
X97988318Y-67033891D01*
X97982288Y-67031206D01*
X97885759Y-67010688D01*
X97801944Y-66992872D01*
X97801939Y-66992872D01*
X97795487Y-66991500D01*
X97604513Y-66991500D01*
X97598061Y-66992872D01*
X97598056Y-66992872D01*
X97514241Y-67010688D01*
X97417712Y-67031206D01*
X97411682Y-67033891D01*
X97411681Y-67033891D01*
X97249278Y-67106197D01*
X97249276Y-67106198D01*
X97243248Y-67108882D01*
X97088747Y-67221134D01*
X97084332Y-67226037D01*
X97079420Y-67230460D01*
X97078295Y-67229211D01*
X97024986Y-67262051D01*
X96991800Y-67266500D01*
X94735212Y-67266500D01*
X94667091Y-67246498D01*
X94641576Y-67224811D01*
X94615668Y-67196037D01*
X94615666Y-67196036D01*
X94611253Y-67191134D01*
X94494348Y-67106197D01*
X94462094Y-67082763D01*
X94462093Y-67082762D01*
X94456752Y-67078882D01*
X94450724Y-67076198D01*
X94450722Y-67076197D01*
X94288319Y-67003891D01*
X94288318Y-67003891D01*
X94282288Y-67001206D01*
X94188888Y-66981353D01*
X94101944Y-66962872D01*
X94101939Y-66962872D01*
X94095487Y-66961500D01*
X93904513Y-66961500D01*
X93898061Y-66962872D01*
X93898056Y-66962872D01*
X93811112Y-66981353D01*
X93717712Y-67001206D01*
X93711682Y-67003891D01*
X93711681Y-67003891D01*
X93549278Y-67076197D01*
X93549276Y-67076198D01*
X93543248Y-67078882D01*
X93537907Y-67082762D01*
X93537906Y-67082763D01*
X93505652Y-67106197D01*
X93388747Y-67191134D01*
X93384326Y-67196044D01*
X93384325Y-67196045D01*
X93365228Y-67217255D01*
X93260960Y-67333056D01*
X93233340Y-67380896D01*
X93169311Y-67491797D01*
X93165473Y-67498444D01*
X93106458Y-67680072D01*
X93086496Y-67870000D01*
X90825905Y-67870000D01*
X94962079Y-63733826D01*
X95024391Y-63699800D01*
X95095206Y-63704865D01*
X95152042Y-63747412D01*
X95164556Y-63768733D01*
X95165473Y-63771556D01*
X95260960Y-63936944D01*
X95265378Y-63941851D01*
X95265379Y-63941852D01*
X95337763Y-64022243D01*
X95388747Y-64078866D01*
X95420404Y-64101866D01*
X95533172Y-64183797D01*
X95543248Y-64191118D01*
X95549276Y-64193802D01*
X95549278Y-64193803D01*
X95666942Y-64246190D01*
X95717712Y-64268794D01*
X95804479Y-64287237D01*
X95898056Y-64307128D01*
X95898061Y-64307128D01*
X95904513Y-64308500D01*
X96095487Y-64308500D01*
X96101939Y-64307128D01*
X96101944Y-64307128D01*
X96195521Y-64287237D01*
X96282288Y-64268794D01*
X96333058Y-64246190D01*
X96450722Y-64193803D01*
X96450724Y-64193802D01*
X96456752Y-64191118D01*
X96466829Y-64183797D01*
X96579596Y-64101866D01*
X96611253Y-64078866D01*
X96662237Y-64022243D01*
X96734621Y-63941852D01*
X96734622Y-63941851D01*
X96739040Y-63936944D01*
X96834527Y-63771556D01*
X96893542Y-63589928D01*
X96895513Y-63571181D01*
X96909646Y-63436705D01*
X96910907Y-63424706D01*
X96937920Y-63359050D01*
X96947122Y-63348782D01*
X97250010Y-63045894D01*
X97312322Y-63011868D01*
X97339105Y-63008989D01*
X97630862Y-63008989D01*
X97698983Y-63028991D01*
X97745476Y-63082647D01*
X97755580Y-63152921D01*
X97750695Y-63173925D01*
X97725392Y-63251800D01*
X97706458Y-63310072D01*
X97705768Y-63316633D01*
X97705768Y-63316635D01*
X97691486Y-63452522D01*
X97686496Y-63500000D01*
X97687186Y-63506565D01*
X97705537Y-63681161D01*
X97706458Y-63689928D01*
X97765473Y-63871556D01*
X97768776Y-63877278D01*
X97768777Y-63877279D01*
X97788652Y-63911703D01*
X97860960Y-64036944D01*
X97865378Y-64041851D01*
X97865379Y-64041852D01*
X97948158Y-64133787D01*
X97988747Y-64178866D01*
X98143248Y-64291118D01*
X98149276Y-64293802D01*
X98149278Y-64293803D01*
X98311681Y-64366109D01*
X98317712Y-64368794D01*
X98399963Y-64386277D01*
X98498056Y-64407128D01*
X98498061Y-64407128D01*
X98504513Y-64408500D01*
X98695487Y-64408500D01*
X98701939Y-64407128D01*
X98701944Y-64407128D01*
X98800037Y-64386277D01*
X98882288Y-64368794D01*
X98891192Y-64364830D01*
X98978311Y-64326042D01*
X99048678Y-64316608D01*
X99112975Y-64346715D01*
X99136569Y-64379223D01*
X99138481Y-64378092D01*
X99148793Y-64395528D01*
X99157488Y-64413276D01*
X99164948Y-64432117D01*
X99169610Y-64438533D01*
X99169610Y-64438534D01*
X99190936Y-64467887D01*
X99197452Y-64477807D01*
X99219958Y-64515862D01*
X99234279Y-64530183D01*
X99247119Y-64545216D01*
X99259028Y-64561607D01*
X99282558Y-64581073D01*
X99293105Y-64589798D01*
X99301884Y-64597788D01*
X99765177Y-65061081D01*
X99799203Y-65123393D01*
X99801392Y-65137006D01*
X99817790Y-65293023D01*
X99818757Y-65302227D01*
X99877772Y-65483855D01*
X99973259Y-65649243D01*
X99977677Y-65654150D01*
X99977678Y-65654151D01*
X100025258Y-65706994D01*
X100101046Y-65791165D01*
X100125580Y-65808990D01*
X100248276Y-65898134D01*
X100255547Y-65903417D01*
X100261575Y-65906101D01*
X100261577Y-65906102D01*
X100421357Y-65977240D01*
X100430011Y-65981093D01*
X100523411Y-66000946D01*
X100610355Y-66019427D01*
X100610360Y-66019427D01*
X100616812Y-66020799D01*
X100807786Y-66020799D01*
X100814238Y-66019427D01*
X100814243Y-66019427D01*
X100901187Y-66000946D01*
X100994587Y-65981093D01*
X101000614Y-65978410D01*
X101000622Y-65978407D01*
X101020685Y-65969474D01*
X101091052Y-65960040D01*
X101155349Y-65990147D01*
X101193162Y-66050236D01*
X101197243Y-66097750D01*
X101186496Y-66200000D01*
X101187186Y-66206565D01*
X101202535Y-66352598D01*
X101206458Y-66389928D01*
X101265473Y-66571556D01*
X101360960Y-66736944D01*
X101365378Y-66741851D01*
X101365379Y-66741852D01*
X101458005Y-66844724D01*
X101488747Y-66878866D01*
X101643248Y-66991118D01*
X101649276Y-66993802D01*
X101649278Y-66993803D01*
X101739318Y-67033891D01*
X101817712Y-67068794D01*
X101883431Y-67082763D01*
X101998056Y-67107128D01*
X101998061Y-67107128D01*
X102004513Y-67108500D01*
X102195487Y-67108500D01*
X102201939Y-67107128D01*
X102201944Y-67107128D01*
X102316569Y-67082763D01*
X102382288Y-67068794D01*
X102460682Y-67033891D01*
X102550722Y-66993803D01*
X102550724Y-66993802D01*
X102556752Y-66991118D01*
X102711253Y-66878866D01*
X102741995Y-66844724D01*
X102834621Y-66741852D01*
X102834622Y-66741851D01*
X102839040Y-66736944D01*
X102934527Y-66571556D01*
X102993542Y-66389928D01*
X102997466Y-66352598D01*
X103010907Y-66224707D01*
X103037920Y-66159050D01*
X103047122Y-66148782D01*
X103297770Y-65898134D01*
X111291500Y-65898134D01*
X111298255Y-65960316D01*
X111349385Y-66096705D01*
X111436739Y-66213261D01*
X111553295Y-66300615D01*
X111689684Y-66351745D01*
X111751866Y-66358500D01*
X113548134Y-66358500D01*
X113610316Y-66351745D01*
X113746705Y-66300615D01*
X113863261Y-66213261D01*
X113950615Y-66096705D01*
X113955346Y-66084086D01*
X113994598Y-65979382D01*
X114037240Y-65922618D01*
X114103802Y-65897918D01*
X114173150Y-65913126D01*
X114207817Y-65941114D01*
X114236250Y-65973938D01*
X114408126Y-66116632D01*
X114601000Y-66229338D01*
X114809692Y-66309030D01*
X114814760Y-66310061D01*
X114814763Y-66310062D01*
X114922017Y-66331883D01*
X115028597Y-66353567D01*
X115033772Y-66353757D01*
X115033774Y-66353757D01*
X115246673Y-66361564D01*
X115246677Y-66361564D01*
X115251837Y-66361753D01*
X115256957Y-66361097D01*
X115256959Y-66361097D01*
X115468288Y-66334025D01*
X115468289Y-66334025D01*
X115473416Y-66333368D01*
X115478366Y-66331883D01*
X115682429Y-66270661D01*
X115682434Y-66270659D01*
X115687384Y-66269174D01*
X115887994Y-66170896D01*
X116069860Y-66041173D01*
X116090306Y-66020799D01*
X116213616Y-65897918D01*
X116228096Y-65883489D01*
X116263024Y-65834882D01*
X116358453Y-65702077D01*
X116359776Y-65703028D01*
X116406645Y-65659857D01*
X116476580Y-65647625D01*
X116542026Y-65675144D01*
X116569875Y-65706994D01*
X116629987Y-65805088D01*
X116776250Y-65973938D01*
X116948126Y-66116632D01*
X117141000Y-66229338D01*
X117349692Y-66309030D01*
X117354760Y-66310061D01*
X117354763Y-66310062D01*
X117462017Y-66331883D01*
X117568597Y-66353567D01*
X117573772Y-66353757D01*
X117573774Y-66353757D01*
X117786673Y-66361564D01*
X117786677Y-66361564D01*
X117791837Y-66361753D01*
X117796957Y-66361097D01*
X117796959Y-66361097D01*
X118008288Y-66334025D01*
X118008289Y-66334025D01*
X118013416Y-66333368D01*
X118018366Y-66331883D01*
X118222429Y-66270661D01*
X118222434Y-66270659D01*
X118227384Y-66269174D01*
X118427994Y-66170896D01*
X118609860Y-66041173D01*
X118630306Y-66020799D01*
X118753616Y-65897918D01*
X118768096Y-65883489D01*
X118803024Y-65834882D01*
X118898453Y-65702077D01*
X118899776Y-65703028D01*
X118946645Y-65659857D01*
X119016580Y-65647625D01*
X119082026Y-65675144D01*
X119109875Y-65706994D01*
X119169987Y-65805088D01*
X119316250Y-65973938D01*
X119488126Y-66116632D01*
X119681000Y-66229338D01*
X119889692Y-66309030D01*
X119894760Y-66310061D01*
X119894763Y-66310062D01*
X120002017Y-66331883D01*
X120108597Y-66353567D01*
X120113772Y-66353757D01*
X120113774Y-66353757D01*
X120326673Y-66361564D01*
X120326677Y-66361564D01*
X120331837Y-66361753D01*
X120336957Y-66361097D01*
X120336959Y-66361097D01*
X120548288Y-66334025D01*
X120548289Y-66334025D01*
X120553416Y-66333368D01*
X120558366Y-66331883D01*
X120762429Y-66270661D01*
X120762434Y-66270659D01*
X120767384Y-66269174D01*
X120967994Y-66170896D01*
X121149860Y-66041173D01*
X121170306Y-66020799D01*
X121293616Y-65897918D01*
X121308096Y-65883489D01*
X121343024Y-65834882D01*
X121438453Y-65702077D01*
X121439776Y-65703028D01*
X121486645Y-65659857D01*
X121556580Y-65647625D01*
X121622026Y-65675144D01*
X121649875Y-65706994D01*
X121709987Y-65805088D01*
X121856250Y-65973938D01*
X122028126Y-66116632D01*
X122221000Y-66229338D01*
X122429692Y-66309030D01*
X122434760Y-66310061D01*
X122434763Y-66310062D01*
X122542017Y-66331883D01*
X122648597Y-66353567D01*
X122653772Y-66353757D01*
X122653774Y-66353757D01*
X122866673Y-66361564D01*
X122866677Y-66361564D01*
X122871837Y-66361753D01*
X122876957Y-66361097D01*
X122876959Y-66361097D01*
X123088288Y-66334025D01*
X123088289Y-66334025D01*
X123093416Y-66333368D01*
X123098366Y-66331883D01*
X123302429Y-66270661D01*
X123302434Y-66270659D01*
X123307384Y-66269174D01*
X123507994Y-66170896D01*
X123689860Y-66041173D01*
X123710306Y-66020799D01*
X123833616Y-65897918D01*
X123848096Y-65883489D01*
X123883024Y-65834882D01*
X123978453Y-65702077D01*
X123979776Y-65703028D01*
X124026645Y-65659857D01*
X124096580Y-65647625D01*
X124162026Y-65675144D01*
X124189875Y-65706994D01*
X124249987Y-65805088D01*
X124396250Y-65973938D01*
X124568126Y-66116632D01*
X124761000Y-66229338D01*
X124969692Y-66309030D01*
X124974760Y-66310061D01*
X124974763Y-66310062D01*
X125082017Y-66331883D01*
X125188597Y-66353567D01*
X125193772Y-66353757D01*
X125193774Y-66353757D01*
X125406673Y-66361564D01*
X125406677Y-66361564D01*
X125411837Y-66361753D01*
X125416957Y-66361097D01*
X125416959Y-66361097D01*
X125628288Y-66334025D01*
X125628289Y-66334025D01*
X125633416Y-66333368D01*
X125638366Y-66331883D01*
X125842429Y-66270661D01*
X125842434Y-66270659D01*
X125847384Y-66269174D01*
X126047994Y-66170896D01*
X126229860Y-66041173D01*
X126250306Y-66020799D01*
X126373616Y-65897918D01*
X126388096Y-65883489D01*
X126423024Y-65834882D01*
X126518453Y-65702077D01*
X126519776Y-65703028D01*
X126566645Y-65659857D01*
X126636580Y-65647625D01*
X126702026Y-65675144D01*
X126729875Y-65706994D01*
X126789987Y-65805088D01*
X126936250Y-65973938D01*
X127108126Y-66116632D01*
X127301000Y-66229338D01*
X127509692Y-66309030D01*
X127514760Y-66310061D01*
X127514763Y-66310062D01*
X127622017Y-66331883D01*
X127728597Y-66353567D01*
X127733772Y-66353757D01*
X127733774Y-66353757D01*
X127946673Y-66361564D01*
X127946677Y-66361564D01*
X127951837Y-66361753D01*
X127956957Y-66361097D01*
X127956959Y-66361097D01*
X128168288Y-66334025D01*
X128168289Y-66334025D01*
X128173416Y-66333368D01*
X128178366Y-66331883D01*
X128382429Y-66270661D01*
X128382434Y-66270659D01*
X128387384Y-66269174D01*
X128587994Y-66170896D01*
X128769860Y-66041173D01*
X128790306Y-66020799D01*
X128913616Y-65897918D01*
X128928096Y-65883489D01*
X128963024Y-65834882D01*
X129058453Y-65702077D01*
X129059776Y-65703028D01*
X129106645Y-65659857D01*
X129176580Y-65647625D01*
X129242026Y-65675144D01*
X129269875Y-65706994D01*
X129329987Y-65805088D01*
X129476250Y-65973938D01*
X129648126Y-66116632D01*
X129841000Y-66229338D01*
X130049692Y-66309030D01*
X130054760Y-66310061D01*
X130054763Y-66310062D01*
X130162017Y-66331883D01*
X130268597Y-66353567D01*
X130273772Y-66353757D01*
X130273774Y-66353757D01*
X130486673Y-66361564D01*
X130486677Y-66361564D01*
X130491837Y-66361753D01*
X130496957Y-66361097D01*
X130496959Y-66361097D01*
X130708288Y-66334025D01*
X130708289Y-66334025D01*
X130713416Y-66333368D01*
X130718366Y-66331883D01*
X130922429Y-66270661D01*
X130922434Y-66270659D01*
X130927384Y-66269174D01*
X131127994Y-66170896D01*
X131309860Y-66041173D01*
X131330306Y-66020799D01*
X131453616Y-65897918D01*
X131468096Y-65883489D01*
X131503024Y-65834882D01*
X131595435Y-65706277D01*
X131598453Y-65702077D01*
X131619320Y-65659857D01*
X131695136Y-65506453D01*
X131695137Y-65506451D01*
X131697430Y-65501811D01*
X131756161Y-65308505D01*
X131760865Y-65293023D01*
X131760865Y-65293021D01*
X131762370Y-65288069D01*
X131791529Y-65066590D01*
X131791664Y-65061081D01*
X131793074Y-65003365D01*
X131793074Y-65003361D01*
X131793156Y-65000000D01*
X131774852Y-64777361D01*
X131720431Y-64560702D01*
X131631354Y-64355840D01*
X131522280Y-64187237D01*
X131512822Y-64172617D01*
X131512820Y-64172614D01*
X131510014Y-64168277D01*
X131359670Y-64003051D01*
X131355619Y-63999852D01*
X131355615Y-63999848D01*
X131188414Y-63867800D01*
X131188410Y-63867798D01*
X131184359Y-63864598D01*
X130988789Y-63756638D01*
X130983920Y-63754914D01*
X130983916Y-63754912D01*
X130783087Y-63683795D01*
X130783083Y-63683794D01*
X130778212Y-63682069D01*
X130773119Y-63681162D01*
X130773116Y-63681161D01*
X130563373Y-63643800D01*
X130563367Y-63643799D01*
X130558284Y-63642894D01*
X130484452Y-63641992D01*
X130340081Y-63640228D01*
X130340079Y-63640228D01*
X130334911Y-63640165D01*
X130114091Y-63673955D01*
X129901756Y-63743357D01*
X129703607Y-63846507D01*
X129699474Y-63849610D01*
X129699471Y-63849612D01*
X129555020Y-63958069D01*
X129524965Y-63980635D01*
X129521393Y-63984373D01*
X129413729Y-64097037D01*
X129370629Y-64142138D01*
X129263201Y-64299621D01*
X129208293Y-64344621D01*
X129137768Y-64352792D01*
X129074021Y-64321538D01*
X129053324Y-64297054D01*
X128972822Y-64172617D01*
X128972820Y-64172614D01*
X128970014Y-64168277D01*
X128819670Y-64003051D01*
X128815619Y-63999852D01*
X128815615Y-63999848D01*
X128648414Y-63867800D01*
X128648410Y-63867798D01*
X128644359Y-63864598D01*
X128448789Y-63756638D01*
X128443920Y-63754914D01*
X128443916Y-63754912D01*
X128243087Y-63683795D01*
X128243083Y-63683794D01*
X128238212Y-63682069D01*
X128233119Y-63681162D01*
X128233116Y-63681161D01*
X128023373Y-63643800D01*
X128023367Y-63643799D01*
X128018284Y-63642894D01*
X127944452Y-63641992D01*
X127800081Y-63640228D01*
X127800079Y-63640228D01*
X127794911Y-63640165D01*
X127574091Y-63673955D01*
X127361756Y-63743357D01*
X127163607Y-63846507D01*
X127159474Y-63849610D01*
X127159471Y-63849612D01*
X127015020Y-63958069D01*
X126984965Y-63980635D01*
X126981393Y-63984373D01*
X126873729Y-64097037D01*
X126830629Y-64142138D01*
X126723201Y-64299621D01*
X126668293Y-64344621D01*
X126597768Y-64352792D01*
X126534021Y-64321538D01*
X126513324Y-64297054D01*
X126432822Y-64172617D01*
X126432820Y-64172614D01*
X126430014Y-64168277D01*
X126279670Y-64003051D01*
X126275619Y-63999852D01*
X126275615Y-63999848D01*
X126108414Y-63867800D01*
X126108410Y-63867798D01*
X126104359Y-63864598D01*
X125908789Y-63756638D01*
X125903920Y-63754914D01*
X125903916Y-63754912D01*
X125703087Y-63683795D01*
X125703083Y-63683794D01*
X125698212Y-63682069D01*
X125693119Y-63681162D01*
X125693116Y-63681161D01*
X125483373Y-63643800D01*
X125483367Y-63643799D01*
X125478284Y-63642894D01*
X125404452Y-63641992D01*
X125260081Y-63640228D01*
X125260079Y-63640228D01*
X125254911Y-63640165D01*
X125034091Y-63673955D01*
X124821756Y-63743357D01*
X124623607Y-63846507D01*
X124619474Y-63849610D01*
X124619471Y-63849612D01*
X124475020Y-63958069D01*
X124444965Y-63980635D01*
X124441393Y-63984373D01*
X124333729Y-64097037D01*
X124290629Y-64142138D01*
X124183201Y-64299621D01*
X124128293Y-64344621D01*
X124057768Y-64352792D01*
X123994021Y-64321538D01*
X123973324Y-64297054D01*
X123892822Y-64172617D01*
X123892820Y-64172614D01*
X123890014Y-64168277D01*
X123739670Y-64003051D01*
X123735619Y-63999852D01*
X123735615Y-63999848D01*
X123568414Y-63867800D01*
X123568410Y-63867798D01*
X123564359Y-63864598D01*
X123368789Y-63756638D01*
X123363920Y-63754914D01*
X123363916Y-63754912D01*
X123163087Y-63683795D01*
X123163083Y-63683794D01*
X123158212Y-63682069D01*
X123153119Y-63681162D01*
X123153116Y-63681161D01*
X122943373Y-63643800D01*
X122943367Y-63643799D01*
X122938284Y-63642894D01*
X122864452Y-63641992D01*
X122720081Y-63640228D01*
X122720079Y-63640228D01*
X122714911Y-63640165D01*
X122494091Y-63673955D01*
X122281756Y-63743357D01*
X122083607Y-63846507D01*
X122079474Y-63849610D01*
X122079471Y-63849612D01*
X121935020Y-63958069D01*
X121904965Y-63980635D01*
X121901393Y-63984373D01*
X121793729Y-64097037D01*
X121750629Y-64142138D01*
X121643201Y-64299621D01*
X121588293Y-64344621D01*
X121517768Y-64352792D01*
X121454021Y-64321538D01*
X121433324Y-64297054D01*
X121352822Y-64172617D01*
X121352820Y-64172614D01*
X121350014Y-64168277D01*
X121199670Y-64003051D01*
X121195619Y-63999852D01*
X121195615Y-63999848D01*
X121028414Y-63867800D01*
X121028410Y-63867798D01*
X121024359Y-63864598D01*
X120828789Y-63756638D01*
X120823920Y-63754914D01*
X120823916Y-63754912D01*
X120623087Y-63683795D01*
X120623083Y-63683794D01*
X120618212Y-63682069D01*
X120613119Y-63681162D01*
X120613116Y-63681161D01*
X120403373Y-63643800D01*
X120403367Y-63643799D01*
X120398284Y-63642894D01*
X120324452Y-63641992D01*
X120180081Y-63640228D01*
X120180079Y-63640228D01*
X120174911Y-63640165D01*
X119954091Y-63673955D01*
X119741756Y-63743357D01*
X119543607Y-63846507D01*
X119539474Y-63849610D01*
X119539471Y-63849612D01*
X119395020Y-63958069D01*
X119364965Y-63980635D01*
X119361393Y-63984373D01*
X119253729Y-64097037D01*
X119210629Y-64142138D01*
X119103201Y-64299621D01*
X119048293Y-64344621D01*
X118977768Y-64352792D01*
X118914021Y-64321538D01*
X118893324Y-64297054D01*
X118812822Y-64172617D01*
X118812820Y-64172614D01*
X118810014Y-64168277D01*
X118659670Y-64003051D01*
X118655619Y-63999852D01*
X118655615Y-63999848D01*
X118488414Y-63867800D01*
X118488410Y-63867798D01*
X118484359Y-63864598D01*
X118288789Y-63756638D01*
X118283920Y-63754914D01*
X118283916Y-63754912D01*
X118083087Y-63683795D01*
X118083083Y-63683794D01*
X118078212Y-63682069D01*
X118073119Y-63681162D01*
X118073116Y-63681161D01*
X117863373Y-63643800D01*
X117863367Y-63643799D01*
X117858284Y-63642894D01*
X117784452Y-63641992D01*
X117640081Y-63640228D01*
X117640079Y-63640228D01*
X117634911Y-63640165D01*
X117414091Y-63673955D01*
X117201756Y-63743357D01*
X117003607Y-63846507D01*
X116999474Y-63849610D01*
X116999471Y-63849612D01*
X116855020Y-63958069D01*
X116824965Y-63980635D01*
X116821393Y-63984373D01*
X116713729Y-64097037D01*
X116670629Y-64142138D01*
X116563201Y-64299621D01*
X116508293Y-64344621D01*
X116437768Y-64352792D01*
X116374021Y-64321538D01*
X116353324Y-64297054D01*
X116272822Y-64172617D01*
X116272820Y-64172614D01*
X116270014Y-64168277D01*
X116119670Y-64003051D01*
X116115619Y-63999852D01*
X116115615Y-63999848D01*
X115948414Y-63867800D01*
X115948410Y-63867798D01*
X115944359Y-63864598D01*
X115748789Y-63756638D01*
X115743920Y-63754914D01*
X115743916Y-63754912D01*
X115543087Y-63683795D01*
X115543083Y-63683794D01*
X115538212Y-63682069D01*
X115533119Y-63681162D01*
X115533116Y-63681161D01*
X115323373Y-63643800D01*
X115323367Y-63643799D01*
X115318284Y-63642894D01*
X115244452Y-63641992D01*
X115100081Y-63640228D01*
X115100079Y-63640228D01*
X115094911Y-63640165D01*
X114874091Y-63673955D01*
X114661756Y-63743357D01*
X114463607Y-63846507D01*
X114459474Y-63849610D01*
X114459471Y-63849612D01*
X114315020Y-63958069D01*
X114284965Y-63980635D01*
X114228537Y-64039684D01*
X114204283Y-64065064D01*
X114142759Y-64100494D01*
X114071846Y-64097037D01*
X114014060Y-64055791D01*
X113995207Y-64022243D01*
X113953767Y-63911703D01*
X113950615Y-63903295D01*
X113863261Y-63786739D01*
X113746705Y-63699385D01*
X113610316Y-63648255D01*
X113548134Y-63641500D01*
X111751866Y-63641500D01*
X111689684Y-63648255D01*
X111553295Y-63699385D01*
X111436739Y-63786739D01*
X111349385Y-63903295D01*
X111298255Y-64039684D01*
X111291500Y-64101866D01*
X111291500Y-65898134D01*
X103297770Y-65898134D01*
X108785499Y-60410405D01*
X108847811Y-60376379D01*
X108874594Y-60373500D01*
X114094427Y-60373500D01*
X114162548Y-60393502D01*
X114209041Y-60447158D01*
X114219145Y-60517432D01*
X114203546Y-60562499D01*
X114165473Y-60628444D01*
X114106458Y-60810072D01*
X114105768Y-60816633D01*
X114105768Y-60816635D01*
X114088294Y-60982894D01*
X114086496Y-61000000D01*
X114087186Y-61006565D01*
X114104235Y-61168774D01*
X114106458Y-61189928D01*
X114165473Y-61371556D01*
X114168776Y-61377278D01*
X114168777Y-61377279D01*
X114191499Y-61416635D01*
X114260960Y-61536944D01*
X114265378Y-61541851D01*
X114265379Y-61541852D01*
X114365909Y-61653502D01*
X114388747Y-61678866D01*
X114474199Y-61740951D01*
X114537312Y-61786805D01*
X114543248Y-61791118D01*
X114549276Y-61793802D01*
X114549278Y-61793803D01*
X114701228Y-61861455D01*
X114717712Y-61868794D01*
X114801962Y-61886702D01*
X114898056Y-61907128D01*
X114898061Y-61907128D01*
X114904513Y-61908500D01*
X115095487Y-61908500D01*
X115101939Y-61907128D01*
X115101944Y-61907128D01*
X115198038Y-61886702D01*
X115282288Y-61868794D01*
X115298772Y-61861455D01*
X115450722Y-61793803D01*
X115450724Y-61793802D01*
X115456752Y-61791118D01*
X115462689Y-61786805D01*
X115593875Y-61691492D01*
X115611253Y-61678866D01*
X115615668Y-61673963D01*
X115620580Y-61669540D01*
X115621705Y-61670789D01*
X115675014Y-61637949D01*
X115708200Y-61633500D01*
X128285406Y-61633500D01*
X128353527Y-61653502D01*
X128374501Y-61670405D01*
X129052878Y-62348782D01*
X129086904Y-62411094D01*
X129089092Y-62424703D01*
X129093871Y-62470166D01*
X129104659Y-62572807D01*
X129106458Y-62589928D01*
X129165473Y-62771556D01*
X129168776Y-62777278D01*
X129168777Y-62777279D01*
X129188903Y-62812138D01*
X129260960Y-62936944D01*
X129265378Y-62941851D01*
X129265379Y-62941852D01*
X129327978Y-63011375D01*
X129388747Y-63078866D01*
X129543248Y-63191118D01*
X129549276Y-63193802D01*
X129549278Y-63193803D01*
X129641173Y-63234717D01*
X129717712Y-63268794D01*
X129786263Y-63283365D01*
X129898056Y-63307128D01*
X129898061Y-63307128D01*
X129904513Y-63308500D01*
X130095487Y-63308500D01*
X130101939Y-63307128D01*
X130101944Y-63307128D01*
X130213737Y-63283365D01*
X130282288Y-63268794D01*
X130358827Y-63234717D01*
X130450722Y-63193803D01*
X130450724Y-63193802D01*
X130456752Y-63191118D01*
X130611253Y-63078866D01*
X130672022Y-63011375D01*
X130734621Y-62941852D01*
X130734622Y-62941851D01*
X130739040Y-62936944D01*
X130811097Y-62812138D01*
X130831223Y-62777279D01*
X130831224Y-62777278D01*
X130834527Y-62771556D01*
X130893542Y-62589928D01*
X130895342Y-62572807D01*
X130912814Y-62406565D01*
X130913504Y-62400000D01*
X130908121Y-62348782D01*
X130894232Y-62216635D01*
X130894232Y-62216633D01*
X130893542Y-62210072D01*
X130834527Y-62028444D01*
X130739040Y-61863056D01*
X130720151Y-61842077D01*
X130615675Y-61726045D01*
X130615674Y-61726044D01*
X130611253Y-61721134D01*
X130488311Y-61631811D01*
X130462094Y-61612763D01*
X130462093Y-61612762D01*
X130456752Y-61608882D01*
X130450724Y-61606198D01*
X130450722Y-61606197D01*
X130288319Y-61533891D01*
X130288318Y-61533891D01*
X130282288Y-61531206D01*
X130182861Y-61510072D01*
X130101944Y-61492872D01*
X130101939Y-61492872D01*
X130095487Y-61491500D01*
X130039595Y-61491500D01*
X129971474Y-61471498D01*
X129950499Y-61454595D01*
X129540676Y-61044771D01*
X129103647Y-60607742D01*
X129096113Y-60599463D01*
X129092000Y-60592982D01*
X129086219Y-60587554D01*
X129081169Y-60581449D01*
X129083374Y-60579625D01*
X129054297Y-60530141D01*
X129057133Y-60459201D01*
X129097872Y-60401056D01*
X129163580Y-60374166D01*
X129176515Y-60373500D01*
X129924274Y-60373500D01*
X129992395Y-60393502D01*
X130031707Y-60433665D01*
X130099987Y-60545088D01*
X130246250Y-60713938D01*
X130418126Y-60856632D01*
X130611000Y-60969338D01*
X130615825Y-60971180D01*
X130615826Y-60971181D01*
X130667803Y-60991029D01*
X130819692Y-61049030D01*
X130824760Y-61050061D01*
X130824763Y-61050062D01*
X130916736Y-61068774D01*
X131038597Y-61093567D01*
X131043772Y-61093757D01*
X131043774Y-61093757D01*
X131256673Y-61101564D01*
X131256677Y-61101564D01*
X131261837Y-61101753D01*
X131266957Y-61101097D01*
X131266959Y-61101097D01*
X131478288Y-61074025D01*
X131478289Y-61074025D01*
X131483416Y-61073368D01*
X131488366Y-61071883D01*
X131692429Y-61010661D01*
X131692434Y-61010659D01*
X131697384Y-61009174D01*
X131897994Y-60910896D01*
X132079860Y-60781173D01*
X132083663Y-60777384D01*
X132198390Y-60663056D01*
X132238096Y-60623489D01*
X132244928Y-60613982D01*
X132365435Y-60446277D01*
X132368453Y-60442077D01*
X132372611Y-60433665D01*
X132465136Y-60246453D01*
X132465137Y-60246451D01*
X132467430Y-60241811D01*
X132532370Y-60028069D01*
X132561529Y-59806590D01*
X132562450Y-59768909D01*
X132563074Y-59743365D01*
X132563074Y-59743361D01*
X132563156Y-59740000D01*
X132544852Y-59517361D01*
X132490431Y-59300702D01*
X132401354Y-59095840D01*
X132280014Y-58908277D01*
X132276532Y-58904450D01*
X132132798Y-58746488D01*
X132101746Y-58682642D01*
X132110141Y-58612143D01*
X132155317Y-58557375D01*
X132181761Y-58543706D01*
X132288297Y-58503767D01*
X132296705Y-58500615D01*
X132413261Y-58413261D01*
X132500615Y-58296705D01*
X132551745Y-58160316D01*
X132558500Y-58098134D01*
X132558500Y-56301866D01*
X132551745Y-56239684D01*
X132500615Y-56103295D01*
X132413261Y-55986739D01*
X132296705Y-55899385D01*
X132160316Y-55848255D01*
X132098134Y-55841500D01*
X130301866Y-55841500D01*
X130239684Y-55848255D01*
X130103295Y-55899385D01*
X129986739Y-55986739D01*
X129899385Y-56103295D01*
X129848255Y-56239684D01*
X129841500Y-56301866D01*
X129841500Y-56440500D01*
X129821498Y-56508621D01*
X129767842Y-56555114D01*
X129715500Y-56566500D01*
X107678768Y-56566500D01*
X107667585Y-56565973D01*
X107660092Y-56564298D01*
X107652166Y-56564547D01*
X107652165Y-56564547D01*
X107592002Y-56566438D01*
X107588044Y-56566500D01*
X107560144Y-56566500D01*
X107556154Y-56567004D01*
X107544320Y-56567936D01*
X107500111Y-56569326D01*
X107492495Y-56571539D01*
X107492493Y-56571539D01*
X107480652Y-56574979D01*
X107461293Y-56578988D01*
X107459983Y-56579154D01*
X107441203Y-56581526D01*
X107433837Y-56584442D01*
X107433831Y-56584444D01*
X107400098Y-56597800D01*
X107388868Y-56601645D01*
X107354017Y-56611770D01*
X107346407Y-56613981D01*
X107339584Y-56618016D01*
X107328966Y-56624295D01*
X107311213Y-56632992D01*
X107303568Y-56636019D01*
X107292383Y-56640448D01*
X107285968Y-56645109D01*
X107256612Y-56666437D01*
X107246695Y-56672951D01*
X107208638Y-56695458D01*
X107194317Y-56709779D01*
X107179284Y-56722619D01*
X107162893Y-56734528D01*
X107157842Y-56740634D01*
X107134702Y-56768605D01*
X107126712Y-56777384D01*
X103249500Y-60654595D01*
X103187188Y-60688621D01*
X103160405Y-60691500D01*
X103104513Y-60691500D01*
X103098061Y-60692872D01*
X103098056Y-60692872D01*
X103017332Y-60710031D01*
X102917712Y-60731206D01*
X102911682Y-60733891D01*
X102911681Y-60733891D01*
X102749278Y-60806197D01*
X102749276Y-60806198D01*
X102743248Y-60808882D01*
X102588747Y-60921134D01*
X102584326Y-60926044D01*
X102584325Y-60926045D01*
X102485112Y-61036233D01*
X102460960Y-61063056D01*
X102403225Y-61163056D01*
X102379241Y-61204598D01*
X102365473Y-61228444D01*
X102306458Y-61410072D01*
X102305768Y-61416633D01*
X102305768Y-61416635D01*
X102292529Y-61542596D01*
X102286496Y-61600000D01*
X102287186Y-61606565D01*
X102305259Y-61778516D01*
X102306458Y-61789928D01*
X102365473Y-61971556D01*
X102368776Y-61977278D01*
X102368777Y-61977279D01*
X102389683Y-62013489D01*
X102460960Y-62136944D01*
X102465378Y-62141851D01*
X102465379Y-62141852D01*
X102566588Y-62254256D01*
X102588747Y-62278866D01*
X102652955Y-62325516D01*
X102713271Y-62369338D01*
X102743248Y-62391118D01*
X102749276Y-62393802D01*
X102749278Y-62393803D01*
X102911681Y-62466109D01*
X102917712Y-62468794D01*
X103001807Y-62486669D01*
X103098056Y-62507128D01*
X103098061Y-62507128D01*
X103104513Y-62508500D01*
X103295487Y-62508500D01*
X103301939Y-62507128D01*
X103301944Y-62507128D01*
X103398193Y-62486669D01*
X103482288Y-62468794D01*
X103488319Y-62466109D01*
X103650722Y-62393803D01*
X103650724Y-62393802D01*
X103656752Y-62391118D01*
X103686730Y-62369338D01*
X103747045Y-62325516D01*
X103811253Y-62278866D01*
X103833412Y-62254256D01*
X103934621Y-62141852D01*
X103934622Y-62141851D01*
X103939040Y-62136944D01*
X104010317Y-62013489D01*
X104031223Y-61977279D01*
X104031224Y-61977278D01*
X104034527Y-61971556D01*
X104093542Y-61789928D01*
X104094742Y-61778516D01*
X104107881Y-61653502D01*
X104110907Y-61624706D01*
X104137920Y-61559050D01*
X104147122Y-61548782D01*
X107825499Y-57870405D01*
X107887811Y-57836379D01*
X107914594Y-57833500D01*
X129715500Y-57833500D01*
X129783621Y-57853502D01*
X129830114Y-57907158D01*
X129841500Y-57959500D01*
X129841500Y-58098134D01*
X129848255Y-58160316D01*
X129899385Y-58296705D01*
X129986739Y-58413261D01*
X130103295Y-58500615D01*
X130111704Y-58503767D01*
X130111705Y-58503768D01*
X130220451Y-58544535D01*
X130277216Y-58587176D01*
X130301916Y-58653738D01*
X130286709Y-58723087D01*
X130267316Y-58749568D01*
X130140629Y-58882138D01*
X130137715Y-58886410D01*
X130137714Y-58886411D01*
X130025095Y-59051504D01*
X129970184Y-59096507D01*
X129921007Y-59106500D01*
X108638768Y-59106500D01*
X108627585Y-59105973D01*
X108620092Y-59104298D01*
X108612166Y-59104547D01*
X108612165Y-59104547D01*
X108552002Y-59106438D01*
X108548044Y-59106500D01*
X108520144Y-59106500D01*
X108516154Y-59107004D01*
X108504320Y-59107936D01*
X108460111Y-59109326D01*
X108452495Y-59111539D01*
X108452493Y-59111539D01*
X108440652Y-59114979D01*
X108421293Y-59118988D01*
X108419983Y-59119154D01*
X108401203Y-59121526D01*
X108393837Y-59124442D01*
X108393831Y-59124444D01*
X108360098Y-59137800D01*
X108348868Y-59141645D01*
X108314017Y-59151770D01*
X108306407Y-59153981D01*
X108299584Y-59158016D01*
X108288966Y-59164295D01*
X108271213Y-59172992D01*
X108263568Y-59176019D01*
X108252383Y-59180448D01*
X108245968Y-59185109D01*
X108216612Y-59206437D01*
X108206695Y-59212951D01*
X108168638Y-59235458D01*
X108154317Y-59249779D01*
X108139284Y-59262619D01*
X108122893Y-59274528D01*
X108097089Y-59305720D01*
X108094702Y-59308605D01*
X108086712Y-59317384D01*
X102149500Y-65254595D01*
X102087188Y-65288621D01*
X102060405Y-65291500D01*
X102004513Y-65291500D01*
X101998061Y-65292872D01*
X101998056Y-65292872D01*
X101924511Y-65308505D01*
X101817712Y-65331206D01*
X101811685Y-65333889D01*
X101811677Y-65333892D01*
X101791614Y-65342825D01*
X101721247Y-65352259D01*
X101656950Y-65322152D01*
X101619137Y-65262063D01*
X101615056Y-65214547D01*
X101615214Y-65213051D01*
X101625803Y-65112299D01*
X101621348Y-65069908D01*
X101606531Y-64928934D01*
X101606531Y-64928932D01*
X101605841Y-64922371D01*
X101546826Y-64740743D01*
X101451339Y-64575355D01*
X101443940Y-64567137D01*
X101327974Y-64438344D01*
X101327973Y-64438343D01*
X101323552Y-64433433D01*
X101210770Y-64351492D01*
X101174393Y-64325062D01*
X101174392Y-64325061D01*
X101169051Y-64321181D01*
X101163023Y-64318497D01*
X101163021Y-64318496D01*
X101000618Y-64246190D01*
X101000617Y-64246190D01*
X100994587Y-64243505D01*
X100901187Y-64223652D01*
X100814243Y-64205171D01*
X100814238Y-64205171D01*
X100807786Y-64203799D01*
X100751894Y-64203799D01*
X100683773Y-64183797D01*
X100662798Y-64166894D01*
X100394904Y-63898999D01*
X100360879Y-63836687D01*
X100358000Y-63809904D01*
X100358000Y-63802524D01*
X100378002Y-63734403D01*
X100390358Y-63718221D01*
X100463540Y-63636944D01*
X100559027Y-63471556D01*
X100618042Y-63289928D01*
X100620546Y-63266109D01*
X100637314Y-63106565D01*
X100638004Y-63100000D01*
X100628741Y-63011868D01*
X100618732Y-62916635D01*
X100618732Y-62916633D01*
X100618042Y-62910072D01*
X100593453Y-62834395D01*
X100591425Y-62763429D01*
X100606900Y-62727947D01*
X100609569Y-62723742D01*
X100614622Y-62717633D01*
X100633804Y-62676870D01*
X100638536Y-62666813D01*
X100642118Y-62659781D01*
X100669184Y-62610549D01*
X100671154Y-62602874D01*
X100671157Y-62602868D01*
X100671233Y-62602570D01*
X100679265Y-62580261D01*
X100679395Y-62579986D01*
X100679398Y-62579978D01*
X100682772Y-62572807D01*
X100693295Y-62517640D01*
X100695021Y-62509918D01*
X100695386Y-62508500D01*
X100705228Y-62470166D01*
X100707018Y-62463196D01*
X100707018Y-62463195D01*
X100708989Y-62455519D01*
X100708989Y-62447282D01*
X100711221Y-62423673D01*
X100711279Y-62423370D01*
X100711279Y-62423366D01*
X100712764Y-62415583D01*
X100709238Y-62359538D01*
X100708989Y-62351627D01*
X100708989Y-62254256D01*
X100709516Y-62243073D01*
X100711191Y-62235580D01*
X100710596Y-62216635D01*
X100709051Y-62167503D01*
X100708989Y-62163544D01*
X100708989Y-62135633D01*
X100708484Y-62131633D01*
X100707551Y-62119790D01*
X100706411Y-62083519D01*
X100706162Y-62075600D01*
X100700510Y-62056146D01*
X100696502Y-62036789D01*
X100694957Y-62024559D01*
X100694957Y-62024558D01*
X100693963Y-62016692D01*
X100691033Y-62009292D01*
X100677685Y-61975577D01*
X100673840Y-61964347D01*
X100663718Y-61929506D01*
X100663718Y-61929505D01*
X100661507Y-61921896D01*
X100657474Y-61915077D01*
X100657472Y-61915072D01*
X100651196Y-61904461D01*
X100642501Y-61886713D01*
X100635041Y-61867872D01*
X100609053Y-61832102D01*
X100602537Y-61822182D01*
X100584069Y-61790954D01*
X100584067Y-61790951D01*
X100580031Y-61784127D01*
X100565710Y-61769806D01*
X100552869Y-61754772D01*
X100545620Y-61744794D01*
X100545618Y-61744792D01*
X100540961Y-61738382D01*
X100541376Y-61738081D01*
X100511734Y-61679484D01*
X100510326Y-61669759D01*
X100494232Y-61516635D01*
X100494232Y-61516633D01*
X100493542Y-61510072D01*
X100434527Y-61328444D01*
X100430019Y-61320635D01*
X100381217Y-61236109D01*
X100339040Y-61163056D01*
X100288293Y-61106695D01*
X100215675Y-61026045D01*
X100215674Y-61026044D01*
X100211253Y-61021134D01*
X100080375Y-60926045D01*
X100062094Y-60912763D01*
X100062093Y-60912762D01*
X100056752Y-60908882D01*
X100050724Y-60906198D01*
X100050722Y-60906197D01*
X99888319Y-60833891D01*
X99888318Y-60833891D01*
X99882288Y-60831206D01*
X99782861Y-60810072D01*
X99701944Y-60792872D01*
X99701939Y-60792872D01*
X99695487Y-60791500D01*
X99504513Y-60791500D01*
X99498061Y-60792872D01*
X99498056Y-60792872D01*
X99417139Y-60810072D01*
X99317712Y-60831206D01*
X99311682Y-60833891D01*
X99311681Y-60833891D01*
X99149278Y-60906197D01*
X99149276Y-60906198D01*
X99143248Y-60908882D01*
X99137907Y-60912762D01*
X99137906Y-60912763D01*
X99119625Y-60926045D01*
X98988747Y-61021134D01*
X98984326Y-61026044D01*
X98984325Y-61026045D01*
X98914805Y-61103255D01*
X98854359Y-61140495D01*
X98783375Y-61139143D01*
X98724391Y-61099630D01*
X98695859Y-61032117D01*
X98694232Y-61016634D01*
X98694231Y-61016631D01*
X98693542Y-61010072D01*
X98634527Y-60828444D01*
X98613990Y-60792872D01*
X98579937Y-60733891D01*
X98539040Y-60663056D01*
X98522882Y-60645110D01*
X98415675Y-60526045D01*
X98415674Y-60526044D01*
X98411253Y-60521134D01*
X98256752Y-60408882D01*
X98250724Y-60406198D01*
X98250722Y-60406197D01*
X98088319Y-60333891D01*
X98088318Y-60333891D01*
X98082288Y-60331206D01*
X97988887Y-60311353D01*
X97901944Y-60292872D01*
X97901939Y-60292872D01*
X97895487Y-60291500D01*
X97704513Y-60291500D01*
X97698061Y-60292872D01*
X97698056Y-60292872D01*
X97611113Y-60311353D01*
X97517712Y-60331206D01*
X97511682Y-60333891D01*
X97511681Y-60333891D01*
X97349278Y-60406197D01*
X97349276Y-60406198D01*
X97343248Y-60408882D01*
X97337907Y-60412762D01*
X97337906Y-60412763D01*
X97257234Y-60471375D01*
X97188747Y-60521134D01*
X97184332Y-60526037D01*
X97179420Y-60530460D01*
X97178295Y-60529211D01*
X97124986Y-60562051D01*
X97091800Y-60566500D01*
X96678767Y-60566500D01*
X96667584Y-60565973D01*
X96660091Y-60564298D01*
X96652165Y-60564547D01*
X96652164Y-60564547D01*
X96592001Y-60566438D01*
X96588043Y-60566500D01*
X96560144Y-60566500D01*
X96556154Y-60567004D01*
X96544320Y-60567936D01*
X96500111Y-60569326D01*
X96492497Y-60571538D01*
X96492492Y-60571539D01*
X96480659Y-60574977D01*
X96461296Y-60578988D01*
X96441203Y-60581526D01*
X96433836Y-60584443D01*
X96433831Y-60584444D01*
X96400092Y-60597802D01*
X96388865Y-60601646D01*
X96346407Y-60613982D01*
X96339581Y-60618019D01*
X96328972Y-60624293D01*
X96311224Y-60632988D01*
X96292383Y-60640448D01*
X96285967Y-60645110D01*
X96285966Y-60645110D01*
X96256613Y-60666436D01*
X96246693Y-60672952D01*
X96215465Y-60691420D01*
X96215462Y-60691422D01*
X96208638Y-60695458D01*
X96194317Y-60709779D01*
X96179284Y-60722619D01*
X96162893Y-60734528D01*
X96157842Y-60740634D01*
X96134702Y-60768605D01*
X96126712Y-60777384D01*
X84707747Y-72196348D01*
X84699461Y-72203888D01*
X84692982Y-72208000D01*
X84687557Y-72213777D01*
X84646357Y-72257651D01*
X84643602Y-72260493D01*
X84623865Y-72280230D01*
X84621385Y-72283427D01*
X84613682Y-72292447D01*
X84583414Y-72324679D01*
X84579595Y-72331625D01*
X84579593Y-72331628D01*
X84573652Y-72342434D01*
X84562801Y-72358953D01*
X84550386Y-72374959D01*
X84547241Y-72382228D01*
X84547238Y-72382232D01*
X84532826Y-72415537D01*
X84527609Y-72426187D01*
X84506305Y-72464940D01*
X84504334Y-72472615D01*
X84504334Y-72472616D01*
X84501267Y-72484562D01*
X84494863Y-72503266D01*
X84486819Y-72521855D01*
X84485580Y-72529678D01*
X84485577Y-72529688D01*
X84479901Y-72565524D01*
X84477495Y-72577144D01*
X84475900Y-72583357D01*
X84466500Y-72619970D01*
X84466500Y-72640224D01*
X84464949Y-72659934D01*
X84461780Y-72679943D01*
X84462526Y-72687835D01*
X84465941Y-72723961D01*
X84466500Y-72735819D01*
X84466500Y-73097476D01*
X84446498Y-73165597D01*
X84434142Y-73181779D01*
X84360960Y-73263056D01*
X84357659Y-73268774D01*
X84299977Y-73368681D01*
X84248594Y-73417674D01*
X84178881Y-73431110D01*
X84112970Y-73404723D01*
X84075309Y-73355924D01*
X84003419Y-73190589D01*
X84003419Y-73190588D01*
X84001354Y-73185840D01*
X83889291Y-73012617D01*
X83882822Y-73002617D01*
X83882820Y-73002614D01*
X83880014Y-72998277D01*
X83729670Y-72833051D01*
X83725619Y-72829852D01*
X83725615Y-72829848D01*
X83558414Y-72697800D01*
X83558410Y-72697798D01*
X83554359Y-72694598D01*
X83513053Y-72671796D01*
X83463084Y-72621364D01*
X83448312Y-72551921D01*
X83473428Y-72485516D01*
X83500780Y-72458909D01*
X83564684Y-72413327D01*
X83679860Y-72331173D01*
X83838096Y-72173489D01*
X83845321Y-72163435D01*
X83965435Y-71996277D01*
X83968453Y-71992077D01*
X84006737Y-71914616D01*
X84065136Y-71796453D01*
X84065137Y-71796451D01*
X84067430Y-71791811D01*
X84132370Y-71578069D01*
X84161529Y-71356590D01*
X84163156Y-71290000D01*
X84144852Y-71067361D01*
X84090431Y-70850702D01*
X84001354Y-70645840D01*
X83889291Y-70472617D01*
X83882822Y-70462617D01*
X83882820Y-70462614D01*
X83880014Y-70458277D01*
X83729670Y-70293051D01*
X83725619Y-70289852D01*
X83725615Y-70289848D01*
X83558414Y-70157800D01*
X83558410Y-70157798D01*
X83554359Y-70154598D01*
X83513053Y-70131796D01*
X83463084Y-70081364D01*
X83448312Y-70011921D01*
X83473428Y-69945516D01*
X83500780Y-69918909D01*
X83564684Y-69873327D01*
X83679860Y-69791173D01*
X83688314Y-69782749D01*
X83804299Y-69667168D01*
X83838096Y-69633489D01*
X83854143Y-69611158D01*
X83965435Y-69456277D01*
X83968453Y-69452077D01*
X84006737Y-69374616D01*
X84065136Y-69256453D01*
X84065137Y-69256451D01*
X84067430Y-69251811D01*
X84113554Y-69100000D01*
X84130865Y-69043023D01*
X84130865Y-69043021D01*
X84132370Y-69038069D01*
X84161529Y-68816590D01*
X84162697Y-68768794D01*
X84163074Y-68753365D01*
X84163074Y-68753361D01*
X84163156Y-68750000D01*
X84144852Y-68527361D01*
X84090431Y-68310702D01*
X84001354Y-68105840D01*
X83889291Y-67932617D01*
X83882822Y-67922617D01*
X83882820Y-67922614D01*
X83880014Y-67918277D01*
X83729670Y-67753051D01*
X83725619Y-67749852D01*
X83725615Y-67749848D01*
X83558414Y-67617800D01*
X83558410Y-67617798D01*
X83554359Y-67614598D01*
X83513053Y-67591796D01*
X83463084Y-67541364D01*
X83448312Y-67471921D01*
X83473428Y-67405516D01*
X83500780Y-67378909D01*
X83564684Y-67333327D01*
X83679860Y-67251173D01*
X83684552Y-67246498D01*
X83761209Y-67170107D01*
X83838096Y-67093489D01*
X83845804Y-67082763D01*
X83965435Y-66916277D01*
X83968453Y-66912077D01*
X84006737Y-66834616D01*
X84065136Y-66716453D01*
X84065137Y-66716451D01*
X84067430Y-66711811D01*
X84132370Y-66498069D01*
X84161529Y-66276590D01*
X84161766Y-66266895D01*
X84163074Y-66213365D01*
X84163074Y-66213361D01*
X84163156Y-66210000D01*
X84144852Y-65987361D01*
X84090431Y-65770702D01*
X84001354Y-65565840D01*
X83944151Y-65477417D01*
X83882822Y-65382617D01*
X83882820Y-65382614D01*
X83880014Y-65378277D01*
X83729670Y-65213051D01*
X83725619Y-65209852D01*
X83725615Y-65209848D01*
X83558414Y-65077800D01*
X83558410Y-65077798D01*
X83554359Y-65074598D01*
X83513053Y-65051796D01*
X83463084Y-65001364D01*
X83448312Y-64931921D01*
X83473428Y-64865516D01*
X83500780Y-64838909D01*
X83564684Y-64793327D01*
X83679860Y-64711173D01*
X83838096Y-64553489D01*
X83924365Y-64433433D01*
X83965435Y-64376277D01*
X83968453Y-64372077D01*
X83990890Y-64326680D01*
X84065136Y-64176453D01*
X84065137Y-64176451D01*
X84067430Y-64171811D01*
X84132370Y-63958069D01*
X84161529Y-63736590D01*
X84162304Y-63704865D01*
X84163074Y-63673365D01*
X84163074Y-63673361D01*
X84163156Y-63670000D01*
X84144852Y-63447361D01*
X84092298Y-63238134D01*
X86766500Y-63238134D01*
X86773255Y-63300316D01*
X86824385Y-63436705D01*
X86911739Y-63553261D01*
X87028295Y-63640615D01*
X87164684Y-63691745D01*
X87226866Y-63698500D01*
X89023134Y-63698500D01*
X89085316Y-63691745D01*
X89221705Y-63640615D01*
X89338261Y-63553261D01*
X89425615Y-63436705D01*
X89445309Y-63384171D01*
X89469598Y-63319382D01*
X89512240Y-63262618D01*
X89578802Y-63237918D01*
X89648150Y-63253126D01*
X89682817Y-63281114D01*
X89711250Y-63313938D01*
X89883126Y-63456632D01*
X90076000Y-63569338D01*
X90080825Y-63571180D01*
X90080826Y-63571181D01*
X90129920Y-63589928D01*
X90284692Y-63649030D01*
X90289760Y-63650061D01*
X90289763Y-63650062D01*
X90371277Y-63666646D01*
X90503597Y-63693567D01*
X90508772Y-63693757D01*
X90508774Y-63693757D01*
X90721673Y-63701564D01*
X90721677Y-63701564D01*
X90726837Y-63701753D01*
X90731957Y-63701097D01*
X90731959Y-63701097D01*
X90943288Y-63674025D01*
X90943289Y-63674025D01*
X90948416Y-63673368D01*
X90959642Y-63670000D01*
X91157429Y-63610661D01*
X91157434Y-63610659D01*
X91162384Y-63609174D01*
X91362994Y-63510896D01*
X91544860Y-63381173D01*
X91567061Y-63359050D01*
X91690822Y-63235720D01*
X91703096Y-63223489D01*
X91724428Y-63193803D01*
X91830435Y-63046277D01*
X91833453Y-63042077D01*
X91836536Y-63035840D01*
X91930136Y-62846453D01*
X91930137Y-62846451D01*
X91932430Y-62841811D01*
X91997370Y-62628069D01*
X92026529Y-62406590D01*
X92026711Y-62399144D01*
X92028074Y-62343365D01*
X92028074Y-62343361D01*
X92028156Y-62340000D01*
X92009852Y-62117361D01*
X91955431Y-61900702D01*
X91866354Y-61695840D01*
X91771218Y-61548782D01*
X91747822Y-61512617D01*
X91747820Y-61512614D01*
X91745014Y-61508277D01*
X91594670Y-61343051D01*
X91590619Y-61339852D01*
X91590615Y-61339848D01*
X91423414Y-61207800D01*
X91423410Y-61207798D01*
X91419359Y-61204598D01*
X91404853Y-61196590D01*
X91344105Y-61163056D01*
X91223789Y-61096638D01*
X91218920Y-61094914D01*
X91218916Y-61094912D01*
X91018087Y-61023795D01*
X91018083Y-61023794D01*
X91013212Y-61022069D01*
X91008119Y-61021162D01*
X91008116Y-61021161D01*
X90798373Y-60983800D01*
X90798367Y-60983799D01*
X90793284Y-60982894D01*
X90719452Y-60981992D01*
X90575081Y-60980228D01*
X90575079Y-60980228D01*
X90569911Y-60980165D01*
X90349091Y-61013955D01*
X90136756Y-61083357D01*
X89938607Y-61186507D01*
X89934474Y-61189610D01*
X89934471Y-61189612D01*
X89764100Y-61317530D01*
X89759965Y-61320635D01*
X89680497Y-61403794D01*
X89679283Y-61405064D01*
X89617759Y-61440494D01*
X89546846Y-61437037D01*
X89489060Y-61395791D01*
X89470207Y-61362243D01*
X89428767Y-61251703D01*
X89425615Y-61243295D01*
X89338261Y-61126739D01*
X89221705Y-61039385D01*
X89085316Y-60988255D01*
X89023134Y-60981500D01*
X87226866Y-60981500D01*
X87164684Y-60988255D01*
X87028295Y-61039385D01*
X86911739Y-61126739D01*
X86824385Y-61243295D01*
X86773255Y-61379684D01*
X86766500Y-61441866D01*
X86766500Y-63238134D01*
X84092298Y-63238134D01*
X84090431Y-63230702D01*
X84001354Y-63025840D01*
X83943845Y-62936944D01*
X83882822Y-62842617D01*
X83882820Y-62842614D01*
X83880014Y-62838277D01*
X83729670Y-62673051D01*
X83725619Y-62669852D01*
X83725615Y-62669848D01*
X83558414Y-62537800D01*
X83558410Y-62537798D01*
X83554359Y-62534598D01*
X83513053Y-62511796D01*
X83463084Y-62461364D01*
X83448312Y-62391921D01*
X83473428Y-62325516D01*
X83500780Y-62298909D01*
X83564684Y-62253327D01*
X83679860Y-62171173D01*
X83715525Y-62135633D01*
X83814714Y-62036789D01*
X83838096Y-62013489D01*
X83864116Y-61977279D01*
X83965435Y-61836277D01*
X83968453Y-61832077D01*
X83970816Y-61827297D01*
X84065136Y-61636453D01*
X84065137Y-61636451D01*
X84067430Y-61631811D01*
X84132370Y-61418069D01*
X84161529Y-61196590D01*
X84161692Y-61189928D01*
X84163074Y-61133365D01*
X84163074Y-61133361D01*
X84163156Y-61130000D01*
X84144852Y-60907361D01*
X84090431Y-60690702D01*
X84001354Y-60485840D01*
X83951568Y-60408882D01*
X83882822Y-60302617D01*
X83882820Y-60302614D01*
X83880014Y-60298277D01*
X83729670Y-60133051D01*
X83725619Y-60129852D01*
X83725615Y-60129848D01*
X83558414Y-59997800D01*
X83558410Y-59997798D01*
X83554359Y-59994598D01*
X83513053Y-59971796D01*
X83463084Y-59921364D01*
X83448312Y-59851921D01*
X83473428Y-59785516D01*
X83500780Y-59758909D01*
X83564684Y-59713327D01*
X83679860Y-59631173D01*
X83838096Y-59473489D01*
X83968453Y-59292077D01*
X83974109Y-59280634D01*
X84065136Y-59096453D01*
X84065137Y-59096451D01*
X84067430Y-59091811D01*
X84099900Y-58984940D01*
X84130865Y-58883023D01*
X84130865Y-58883021D01*
X84132370Y-58878069D01*
X84161529Y-58656590D01*
X84162615Y-58612143D01*
X84163074Y-58593365D01*
X84163074Y-58593361D01*
X84163156Y-58590000D01*
X84144852Y-58367361D01*
X84090431Y-58150702D01*
X84001354Y-57945840D01*
X83941618Y-57853502D01*
X83882822Y-57762617D01*
X83882820Y-57762614D01*
X83880014Y-57758277D01*
X83869217Y-57746411D01*
X83732798Y-57596488D01*
X83701746Y-57532642D01*
X83710141Y-57462143D01*
X83755317Y-57407375D01*
X83781761Y-57393706D01*
X83888297Y-57353767D01*
X83896705Y-57350615D01*
X84013261Y-57263261D01*
X84100615Y-57146705D01*
X84151745Y-57010316D01*
X84158500Y-56948134D01*
X84158500Y-55151866D01*
X84151745Y-55089684D01*
X84100615Y-54953295D01*
X84013261Y-54836739D01*
X83896705Y-54749385D01*
X83760316Y-54698255D01*
X83698134Y-54691500D01*
X81901866Y-54691500D01*
X81839684Y-54698255D01*
X81703295Y-54749385D01*
X81682766Y-54764771D01*
X81588894Y-54835124D01*
X81522388Y-54859972D01*
X81453005Y-54844919D01*
X81437764Y-54835124D01*
X81343892Y-54764771D01*
X81343890Y-54764770D01*
X81336705Y-54759385D01*
X81200316Y-54708255D01*
X81138134Y-54701500D01*
X79341866Y-54701500D01*
X79279684Y-54708255D01*
X79143295Y-54759385D01*
X79136110Y-54764770D01*
X79136108Y-54764771D01*
X79035565Y-54840124D01*
X78969058Y-54864972D01*
X78899676Y-54849919D01*
X78884435Y-54840124D01*
X78783892Y-54764771D01*
X78783890Y-54764770D01*
X78776705Y-54759385D01*
X78640316Y-54708255D01*
X78578134Y-54701500D01*
X76781866Y-54701500D01*
X76719684Y-54708255D01*
X76583295Y-54759385D01*
X76466739Y-54846739D01*
X76379385Y-54963295D01*
X76328255Y-55099684D01*
X76321500Y-55161866D01*
X76321500Y-56958134D01*
X76328255Y-57020316D01*
X76379385Y-57156705D01*
X76466739Y-57273261D01*
X76583295Y-57360615D01*
X76591704Y-57363767D01*
X76591705Y-57363768D01*
X76700451Y-57404535D01*
X76757216Y-57447176D01*
X76781916Y-57513738D01*
X76766709Y-57583087D01*
X76747316Y-57609568D01*
X76620629Y-57742138D01*
X76494743Y-57926680D01*
X76400688Y-58129305D01*
X76340989Y-58344570D01*
X76317251Y-58566695D01*
X76317548Y-58571848D01*
X76317548Y-58571851D01*
X76323936Y-58682642D01*
X76330110Y-58789715D01*
X76331247Y-58794761D01*
X76331248Y-58794767D01*
X76350939Y-58882138D01*
X76379222Y-59007639D01*
X76432962Y-59139986D01*
X76451285Y-59185109D01*
X76463266Y-59214616D01*
X76484814Y-59249779D01*
X76571163Y-59390688D01*
X76579987Y-59405088D01*
X76726250Y-59573938D01*
X76898126Y-59716632D01*
X76932376Y-59736646D01*
X76971445Y-59759476D01*
X77020169Y-59811114D01*
X77033240Y-59880897D01*
X77006509Y-59946669D01*
X76966055Y-59980027D01*
X76953607Y-59986507D01*
X76949474Y-59989610D01*
X76949471Y-59989612D01*
X76783305Y-60114373D01*
X76774965Y-60120635D01*
X76756605Y-60139848D01*
X76663901Y-60236857D01*
X76620629Y-60282138D01*
X76617720Y-60286403D01*
X76617714Y-60286411D01*
X76558306Y-60373500D01*
X76494743Y-60466680D01*
X76460390Y-60540688D01*
X76403589Y-60663056D01*
X76400688Y-60669305D01*
X76340989Y-60884570D01*
X76317251Y-61106695D01*
X76317548Y-61111848D01*
X76317548Y-61111851D01*
X76323941Y-61222721D01*
X76330110Y-61329715D01*
X76331247Y-61334761D01*
X76331248Y-61334767D01*
X76350022Y-61418069D01*
X76379222Y-61547639D01*
X76434084Y-61682749D01*
X76458483Y-61742836D01*
X76463266Y-61754616D01*
X76486378Y-61792332D01*
X76571163Y-61930688D01*
X76579987Y-61945088D01*
X76726250Y-62113938D01*
X76898126Y-62256632D01*
X76927771Y-62273955D01*
X76971445Y-62299476D01*
X77020169Y-62351114D01*
X77033240Y-62420897D01*
X77006509Y-62486669D01*
X76966055Y-62520027D01*
X76953607Y-62526507D01*
X76949474Y-62529610D01*
X76949471Y-62529612D01*
X76783305Y-62654373D01*
X76774965Y-62660635D01*
X76620629Y-62822138D01*
X76617720Y-62826403D01*
X76617714Y-62826411D01*
X76546214Y-62931226D01*
X76494743Y-63006680D01*
X76448378Y-63106565D01*
X76407884Y-63193803D01*
X76400688Y-63209305D01*
X76340989Y-63424570D01*
X76317251Y-63646695D01*
X76317548Y-63651848D01*
X76317548Y-63651851D01*
X76323590Y-63756638D01*
X76330110Y-63869715D01*
X76331247Y-63874761D01*
X76331248Y-63874767D01*
X76355107Y-63980635D01*
X76379222Y-64087639D01*
X76440673Y-64238976D01*
X76451691Y-64266109D01*
X76463266Y-64294616D01*
X76484907Y-64329931D01*
X76572391Y-64472692D01*
X76579987Y-64485088D01*
X76726250Y-64653938D01*
X76898126Y-64796632D01*
X76954332Y-64829476D01*
X76971445Y-64839476D01*
X77020169Y-64891114D01*
X77033240Y-64960897D01*
X77006509Y-65026669D01*
X76966055Y-65060027D01*
X76953607Y-65066507D01*
X76949474Y-65069610D01*
X76949471Y-65069612D01*
X76783305Y-65194373D01*
X76774965Y-65200635D01*
X76756605Y-65219848D01*
X76630070Y-65352259D01*
X76620629Y-65362138D01*
X76617720Y-65366403D01*
X76617714Y-65366411D01*
X76609620Y-65378277D01*
X76494743Y-65546680D01*
X76400688Y-65749305D01*
X76340989Y-65964570D01*
X76317251Y-66186695D01*
X76317548Y-66191848D01*
X76317548Y-66191851D01*
X76327136Y-66358131D01*
X76330110Y-66409715D01*
X76331247Y-66414761D01*
X76331248Y-66414767D01*
X76350022Y-66498069D01*
X76379222Y-66627639D01*
X76463266Y-66834616D01*
X76486378Y-66872332D01*
X76571163Y-67010688D01*
X76579987Y-67025088D01*
X76726250Y-67193938D01*
X76898126Y-67336632D01*
X76953131Y-67368774D01*
X76971445Y-67379476D01*
X77020169Y-67431114D01*
X77033240Y-67500897D01*
X77006509Y-67566669D01*
X76966055Y-67600027D01*
X76953607Y-67606507D01*
X76949474Y-67609610D01*
X76949471Y-67609612D01*
X76783305Y-67734373D01*
X76774965Y-67740635D01*
X76620629Y-67902138D01*
X76617720Y-67906403D01*
X76617714Y-67906411D01*
X76532556Y-68031249D01*
X76494743Y-68086680D01*
X76479430Y-68119669D01*
X76425770Y-68235271D01*
X76400688Y-68289305D01*
X76340989Y-68504570D01*
X76317251Y-68726695D01*
X76317548Y-68731848D01*
X76317548Y-68731851D01*
X76327462Y-68903794D01*
X76330110Y-68949715D01*
X76331247Y-68954761D01*
X76331248Y-68954767D01*
X76350022Y-69038069D01*
X76379222Y-69167639D01*
X76463266Y-69374616D01*
X76486378Y-69412332D01*
X76572983Y-69553658D01*
X76579987Y-69565088D01*
X76726250Y-69733938D01*
X76898126Y-69876632D01*
X76922916Y-69891118D01*
X76971445Y-69919476D01*
X77020169Y-69971114D01*
X77033240Y-70040897D01*
X77006509Y-70106669D01*
X76966055Y-70140027D01*
X76953607Y-70146507D01*
X76949474Y-70149610D01*
X76949471Y-70149612D01*
X76783305Y-70274373D01*
X76774965Y-70280635D01*
X76620629Y-70442138D01*
X76617720Y-70446403D01*
X76617714Y-70446411D01*
X76609620Y-70458277D01*
X76494743Y-70626680D01*
X76400688Y-70829305D01*
X76340989Y-71044570D01*
X76317251Y-71266695D01*
X76317548Y-71271848D01*
X76317548Y-71271851D01*
X76327243Y-71439990D01*
X76330110Y-71489715D01*
X76331247Y-71494761D01*
X76331248Y-71494767D01*
X76350022Y-71578069D01*
X76379222Y-71707639D01*
X76463266Y-71914616D01*
X76486378Y-71952332D01*
X76571163Y-72090688D01*
X76579987Y-72105088D01*
X76726250Y-72273938D01*
X76898126Y-72416632D01*
X76954332Y-72449476D01*
X76971445Y-72459476D01*
X77020169Y-72511114D01*
X77033240Y-72580897D01*
X77006509Y-72646669D01*
X76966055Y-72680027D01*
X76953607Y-72686507D01*
X76949474Y-72689610D01*
X76949471Y-72689612D01*
X76783305Y-72814373D01*
X76774965Y-72820635D01*
X76756605Y-72839848D01*
X76674755Y-72925499D01*
X76620629Y-72982138D01*
X76617720Y-72986403D01*
X76617714Y-72986411D01*
X76609620Y-72998277D01*
X76494743Y-73166680D01*
X76400688Y-73369305D01*
X76340989Y-73584570D01*
X76317251Y-73806695D01*
X75816894Y-73806695D01*
X75808518Y-45112427D01*
X75810921Y-45087897D01*
X75811252Y-45086224D01*
X75812997Y-45077422D01*
X75812201Y-45068484D01*
X75812201Y-45068479D01*
X75811604Y-45061775D01*
X75811878Y-45036677D01*
X75831955Y-44856080D01*
X75835094Y-44838857D01*
X75856537Y-44754800D01*
X75886360Y-44637892D01*
X75891853Y-44621275D01*
X75970483Y-44429348D01*
X75978230Y-44413648D01*
X76082699Y-44234479D01*
X76092545Y-44220007D01*
X76220838Y-44057053D01*
X76232596Y-44044084D01*
X76382247Y-43900474D01*
X76395691Y-43889259D01*
X76563795Y-43767784D01*
X76578658Y-43758543D01*
X76761983Y-43661538D01*
X76777990Y-43654445D01*
X76972984Y-43583790D01*
X76989818Y-43578984D01*
X77192721Y-43536039D01*
X77210059Y-43533612D01*
X77324191Y-43525665D01*
X77384092Y-43521494D01*
X77404352Y-43522356D01*
X77410568Y-43522432D01*
X77419441Y-43523814D01*
X77428343Y-43522650D01*
X77428347Y-43522650D01*
X77451071Y-43519679D01*
X77467382Y-43518616D01*
X88466398Y-43516642D01*
X97082283Y-43515095D01*
X97150407Y-43535085D01*
X97171400Y-43552000D01*
X98780600Y-45161200D01*
X114808000Y-45161200D01*
X114808000Y-44806990D01*
X114828002Y-44738869D01*
X114844905Y-44717895D01*
X116014213Y-43548587D01*
X116076525Y-43514561D01*
X116103285Y-43511682D01*
X133809451Y-43508504D01*
X133818442Y-43508824D01*
X133860089Y-43511796D01*
X133860091Y-43511796D01*
X133869048Y-43512435D01*
X133881551Y-43509728D01*
X133908713Y-43506874D01*
X134052266Y-43507443D01*
G37*
%TD.AperFunction*%
%TD*%
M02*
