%TF.GenerationSoftware,KiCad,Pcbnew,(6.0.4)*%
%TF.CreationDate,2022-06-24T22:40:59+02:00*%
%TF.ProjectId,ESP32_robot,45535033-325f-4726-9f62-6f742e6b6963,rev?*%
%TF.SameCoordinates,Original*%
%TF.FileFunction,Soldermask,Bot*%
%TF.FilePolarity,Negative*%
%FSLAX46Y46*%
G04 Gerber Fmt 4.6, Leading zero omitted, Abs format (unit mm)*
G04 Created by KiCad (PCBNEW (6.0.4)) date 2022-06-24 22:40:59*
%MOMM*%
%LPD*%
G01*
G04 APERTURE LIST*
G04 Aperture macros list*
%AMRoundRect*
0 Rectangle with rounded corners*
0 $1 Rounding radius*
0 $2 $3 $4 $5 $6 $7 $8 $9 X,Y pos of 4 corners*
0 Add a 4 corners polygon primitive as box body*
4,1,4,$2,$3,$4,$5,$6,$7,$8,$9,$2,$3,0*
0 Add four circle primitives for the rounded corners*
1,1,$1+$1,$2,$3*
1,1,$1+$1,$4,$5*
1,1,$1+$1,$6,$7*
1,1,$1+$1,$8,$9*
0 Add four rect primitives between the rounded corners*
20,1,$1+$1,$2,$3,$4,$5,0*
20,1,$1+$1,$4,$5,$6,$7,0*
20,1,$1+$1,$6,$7,$8,$9,0*
20,1,$1+$1,$8,$9,$2,$3,0*%
G04 Aperture macros list end*
%ADD10C,0.670000*%
%ADD11RoundRect,0.500000X0.000000X-0.600000X0.000000X-0.600000X0.000000X0.600000X0.000000X0.600000X0*%
%ADD12RoundRect,0.500000X0.000000X-0.300000X0.000000X-0.300000X0.000000X0.300000X0.000000X0.300000X0*%
%ADD13R,1.700000X1.700000*%
%ADD14O,1.700000X1.700000*%
G04 APERTURE END LIST*
D10*
%TO.C,J1*%
X107268600Y-76225400D03*
X101468600Y-76225400D03*
D11*
X108688600Y-75695400D03*
D12*
X108688600Y-79875400D03*
D11*
X100048600Y-75695400D03*
D12*
X100048600Y-79875400D03*
%TD*%
D13*
%TO.C,J4*%
X82800000Y-56050000D03*
D14*
X82800000Y-58590000D03*
X82800000Y-61130000D03*
X82800000Y-63670000D03*
X82800000Y-66210000D03*
X82800000Y-68750000D03*
X82800000Y-71290000D03*
X82800000Y-73830000D03*
%TD*%
D13*
%TO.C,J3*%
X131200000Y-57200000D03*
D14*
X131200000Y-59740000D03*
%TD*%
D13*
%TO.C,J2*%
X112650000Y-65000000D03*
D14*
X115190000Y-65000000D03*
X117730000Y-65000000D03*
X120270000Y-65000000D03*
X122810000Y-65000000D03*
X125350000Y-65000000D03*
X127890000Y-65000000D03*
X130430000Y-65000000D03*
%TD*%
D13*
%TO.C,5V1*%
X80240000Y-56060000D03*
D14*
X80240000Y-58600000D03*
X80240000Y-61140000D03*
X80240000Y-63680000D03*
X80240000Y-66220000D03*
X80240000Y-68760000D03*
X80240000Y-71300000D03*
X80240000Y-73840000D03*
%TD*%
D13*
%TO.C,J5*%
X88125000Y-62340000D03*
D14*
X90665000Y-62340000D03*
%TD*%
D13*
%TO.C,G1*%
X77680000Y-56060000D03*
D14*
X77680000Y-58600000D03*
X77680000Y-61140000D03*
X77680000Y-63680000D03*
X77680000Y-66220000D03*
X77680000Y-68760000D03*
X77680000Y-71300000D03*
X77680000Y-73840000D03*
%TD*%
M02*
