%TF.GenerationSoftware,KiCad,Pcbnew,(6.0.4)*%
%TF.CreationDate,2022-06-24T22:40:59+02:00*%
%TF.ProjectId,ESP32_robot,45535033-325f-4726-9f62-6f742e6b6963,rev?*%
%TF.SameCoordinates,Original*%
%TF.FileFunction,Legend,Top*%
%TF.FilePolarity,Positive*%
%FSLAX46Y46*%
G04 Gerber Fmt 4.6, Leading zero omitted, Abs format (unit mm)*
G04 Created by KiCad (PCBNEW (6.0.4)) date 2022-06-24 22:40:59*
%MOMM*%
%LPD*%
G01*
G04 APERTURE LIST*
%ADD10C,0.150000*%
%ADD11C,0.100000*%
%ADD12C,0.120000*%
%ADD13C,0.020000*%
G04 APERTURE END LIST*
D10*
%TO.C,C3*%
X96140542Y-50928866D02*
X96188161Y-50976485D01*
X96235780Y-51119342D01*
X96235780Y-51214580D01*
X96188161Y-51357438D01*
X96092923Y-51452676D01*
X95997685Y-51500295D01*
X95807209Y-51547914D01*
X95664352Y-51547914D01*
X95473876Y-51500295D01*
X95378638Y-51452676D01*
X95283400Y-51357438D01*
X95235780Y-51214580D01*
X95235780Y-51119342D01*
X95283400Y-50976485D01*
X95331019Y-50928866D01*
X95235780Y-50595533D02*
X95235780Y-49976485D01*
X95616733Y-50309819D01*
X95616733Y-50166961D01*
X95664352Y-50071723D01*
X95711971Y-50024104D01*
X95807209Y-49976485D01*
X96045304Y-49976485D01*
X96140542Y-50024104D01*
X96188161Y-50071723D01*
X96235780Y-50166961D01*
X96235780Y-50452676D01*
X96188161Y-50547914D01*
X96140542Y-50595533D01*
D11*
%TO.C,J1*%
X104101933Y-77287304D02*
X104101933Y-77858733D01*
X104063838Y-77973019D01*
X103987647Y-78049209D01*
X103873361Y-78087304D01*
X103797171Y-78087304D01*
X104901933Y-78087304D02*
X104444790Y-78087304D01*
X104673361Y-78087304D02*
X104673361Y-77287304D01*
X104597171Y-77401590D01*
X104520980Y-77477780D01*
X104444790Y-77515876D01*
D10*
%TO.C,R5*%
X123123530Y-52703666D02*
X122647340Y-53037000D01*
X123123530Y-53275095D02*
X122123530Y-53275095D01*
X122123530Y-52894142D01*
X122171150Y-52798904D01*
X122218769Y-52751285D01*
X122314007Y-52703666D01*
X122456864Y-52703666D01*
X122552102Y-52751285D01*
X122599721Y-52798904D01*
X122647340Y-52894142D01*
X122647340Y-53275095D01*
X122123530Y-51798904D02*
X122123530Y-52275095D01*
X122599721Y-52322714D01*
X122552102Y-52275095D01*
X122504483Y-52179857D01*
X122504483Y-51941761D01*
X122552102Y-51846523D01*
X122599721Y-51798904D01*
X122694959Y-51751285D01*
X122933054Y-51751285D01*
X123028292Y-51798904D01*
X123075911Y-51846523D01*
X123123530Y-51941761D01*
X123123530Y-52179857D01*
X123075911Y-52275095D01*
X123028292Y-52322714D01*
%TO.C,J4*%
X82466666Y-53172380D02*
X82466666Y-53886666D01*
X82419047Y-54029523D01*
X82323809Y-54124761D01*
X82180952Y-54172380D01*
X82085714Y-54172380D01*
X83371428Y-53505714D02*
X83371428Y-54172380D01*
X83133333Y-53124761D02*
X82895238Y-53839047D01*
X83514285Y-53839047D01*
%TO.C,U1*%
X105918095Y-52540895D02*
X105918095Y-53350419D01*
X105965714Y-53445657D01*
X106013333Y-53493276D01*
X106108571Y-53540895D01*
X106299047Y-53540895D01*
X106394285Y-53493276D01*
X106441904Y-53445657D01*
X106489523Y-53350419D01*
X106489523Y-52540895D01*
X107489523Y-53540895D02*
X106918095Y-53540895D01*
X107203809Y-53540895D02*
X107203809Y-52540895D01*
X107108571Y-52683753D01*
X107013333Y-52778991D01*
X106918095Y-52826610D01*
X98060952Y-53017086D02*
X98394285Y-53017086D01*
X98537142Y-53540895D02*
X98060952Y-53540895D01*
X98060952Y-52540895D01*
X98537142Y-52540895D01*
X98918095Y-53493276D02*
X99060952Y-53540895D01*
X99299047Y-53540895D01*
X99394285Y-53493276D01*
X99441904Y-53445657D01*
X99489523Y-53350419D01*
X99489523Y-53255181D01*
X99441904Y-53159943D01*
X99394285Y-53112324D01*
X99299047Y-53064705D01*
X99108571Y-53017086D01*
X99013333Y-52969467D01*
X98965714Y-52921848D01*
X98918095Y-52826610D01*
X98918095Y-52731372D01*
X98965714Y-52636134D01*
X99013333Y-52588515D01*
X99108571Y-52540895D01*
X99346666Y-52540895D01*
X99489523Y-52588515D01*
X99918095Y-53540895D02*
X99918095Y-52540895D01*
X100299047Y-52540895D01*
X100394285Y-52588515D01*
X100441904Y-52636134D01*
X100489523Y-52731372D01*
X100489523Y-52874229D01*
X100441904Y-52969467D01*
X100394285Y-53017086D01*
X100299047Y-53064705D01*
X99918095Y-53064705D01*
X100822857Y-52540895D02*
X101441904Y-52540895D01*
X101108571Y-52921848D01*
X101251428Y-52921848D01*
X101346666Y-52969467D01*
X101394285Y-53017086D01*
X101441904Y-53112324D01*
X101441904Y-53350419D01*
X101394285Y-53445657D01*
X101346666Y-53493276D01*
X101251428Y-53540895D01*
X100965714Y-53540895D01*
X100870476Y-53493276D01*
X100822857Y-53445657D01*
X101822857Y-52636134D02*
X101870476Y-52588515D01*
X101965714Y-52540895D01*
X102203809Y-52540895D01*
X102299047Y-52588515D01*
X102346666Y-52636134D01*
X102394285Y-52731372D01*
X102394285Y-52826610D01*
X102346666Y-52969467D01*
X101775238Y-53540895D01*
X102394285Y-53540895D01*
X102822857Y-53159943D02*
X103584761Y-53159943D01*
X104013333Y-53493276D02*
X104156190Y-53540895D01*
X104394285Y-53540895D01*
X104489523Y-53493276D01*
X104537142Y-53445657D01*
X104584761Y-53350419D01*
X104584761Y-53255181D01*
X104537142Y-53159943D01*
X104489523Y-53112324D01*
X104394285Y-53064705D01*
X104203809Y-53017086D01*
X104108571Y-52969467D01*
X104060952Y-52921848D01*
X104013333Y-52826610D01*
X104013333Y-52731372D01*
X104060952Y-52636134D01*
X104108571Y-52588515D01*
X104203809Y-52540895D01*
X104441904Y-52540895D01*
X104584761Y-52588515D01*
X104965714Y-52636134D02*
X105013333Y-52588515D01*
X105108571Y-52540895D01*
X105346666Y-52540895D01*
X105441904Y-52588515D01*
X105489523Y-52636134D01*
X105537142Y-52731372D01*
X105537142Y-52826610D01*
X105489523Y-52969467D01*
X104918095Y-53540895D01*
X105537142Y-53540895D01*
X105965714Y-53159943D02*
X106727619Y-53159943D01*
X107203809Y-53540895D02*
X107203809Y-52540895D01*
X107537142Y-53255181D01*
X107870476Y-52540895D01*
X107870476Y-53540895D01*
X108346666Y-53540895D02*
X108346666Y-52540895D01*
X108822857Y-53540895D02*
X108822857Y-52540895D01*
X109394285Y-53540895D01*
X109394285Y-52540895D01*
X109870476Y-53540895D02*
X109870476Y-52540895D01*
X110346666Y-53159943D02*
X111108571Y-53159943D01*
X112108571Y-53540895D02*
X111537142Y-53540895D01*
X111822857Y-53540895D02*
X111822857Y-52540895D01*
X111727619Y-52683753D01*
X111632380Y-52778991D01*
X111537142Y-52826610D01*
X112537142Y-53159943D02*
X113299047Y-53159943D01*
X113775238Y-53540895D02*
X113775238Y-52540895D01*
X114346666Y-53540895D01*
X114346666Y-52540895D01*
X115251428Y-52874229D02*
X115251428Y-53540895D01*
X115013333Y-52493276D02*
X114775238Y-53207562D01*
X115394285Y-53207562D01*
X106680000Y-50252380D02*
X106680000Y-50490476D01*
X106441904Y-50395238D02*
X106680000Y-50490476D01*
X106918095Y-50395238D01*
X106537142Y-50680952D02*
X106680000Y-50490476D01*
X106822857Y-50680952D01*
%TO.C,C2*%
X87233333Y-54377142D02*
X87185714Y-54424761D01*
X87042857Y-54472380D01*
X86947619Y-54472380D01*
X86804761Y-54424761D01*
X86709523Y-54329523D01*
X86661904Y-54234285D01*
X86614285Y-54043809D01*
X86614285Y-53900952D01*
X86661904Y-53710476D01*
X86709523Y-53615238D01*
X86804761Y-53520000D01*
X86947619Y-53472380D01*
X87042857Y-53472380D01*
X87185714Y-53520000D01*
X87233333Y-53567619D01*
X87614285Y-53567619D02*
X87661904Y-53520000D01*
X87757142Y-53472380D01*
X87995238Y-53472380D01*
X88090476Y-53520000D01*
X88138095Y-53567619D01*
X88185714Y-53662857D01*
X88185714Y-53758095D01*
X88138095Y-53900952D01*
X87566666Y-54472380D01*
X88185714Y-54472380D01*
%TO.C,R3*%
X102382580Y-67265866D02*
X101906390Y-67599200D01*
X102382580Y-67837295D02*
X101382580Y-67837295D01*
X101382580Y-67456342D01*
X101430200Y-67361104D01*
X101477819Y-67313485D01*
X101573057Y-67265866D01*
X101715914Y-67265866D01*
X101811152Y-67313485D01*
X101858771Y-67361104D01*
X101906390Y-67456342D01*
X101906390Y-67837295D01*
X101382580Y-66932533D02*
X101382580Y-66313485D01*
X101763533Y-66646819D01*
X101763533Y-66503961D01*
X101811152Y-66408723D01*
X101858771Y-66361104D01*
X101954009Y-66313485D01*
X102192104Y-66313485D01*
X102287342Y-66361104D01*
X102334961Y-66408723D01*
X102382580Y-66503961D01*
X102382580Y-66789676D01*
X102334961Y-66884914D01*
X102287342Y-66932533D01*
%TO.C,U2*%
X121305895Y-70392780D02*
X121305895Y-71202304D01*
X121353514Y-71297542D01*
X121401133Y-71345161D01*
X121496371Y-71392780D01*
X121686847Y-71392780D01*
X121782085Y-71345161D01*
X121829704Y-71297542D01*
X121877323Y-71202304D01*
X121877323Y-70392780D01*
X122305895Y-70488019D02*
X122353514Y-70440400D01*
X122448752Y-70392780D01*
X122686847Y-70392780D01*
X122782085Y-70440400D01*
X122829704Y-70488019D01*
X122877323Y-70583257D01*
X122877323Y-70678495D01*
X122829704Y-70821352D01*
X122258276Y-71392780D01*
X122877323Y-71392780D01*
%TO.C,C1*%
X115037142Y-76216666D02*
X115084761Y-76264285D01*
X115132380Y-76407142D01*
X115132380Y-76502380D01*
X115084761Y-76645238D01*
X114989523Y-76740476D01*
X114894285Y-76788095D01*
X114703809Y-76835714D01*
X114560952Y-76835714D01*
X114370476Y-76788095D01*
X114275238Y-76740476D01*
X114180000Y-76645238D01*
X114132380Y-76502380D01*
X114132380Y-76407142D01*
X114180000Y-76264285D01*
X114227619Y-76216666D01*
X115132380Y-75264285D02*
X115132380Y-75835714D01*
X115132380Y-75550000D02*
X114132380Y-75550000D01*
X114275238Y-75645238D01*
X114370476Y-75740476D01*
X114418095Y-75835714D01*
%TO.C,J3*%
X130866666Y-54322380D02*
X130866666Y-55036666D01*
X130819047Y-55179523D01*
X130723809Y-55274761D01*
X130580952Y-55322380D01*
X130485714Y-55322380D01*
X131247619Y-54322380D02*
X131866666Y-54322380D01*
X131533333Y-54703333D01*
X131676190Y-54703333D01*
X131771428Y-54750952D01*
X131819047Y-54798571D01*
X131866666Y-54893809D01*
X131866666Y-55131904D01*
X131819047Y-55227142D01*
X131771428Y-55274761D01*
X131676190Y-55322380D01*
X131390476Y-55322380D01*
X131295238Y-55274761D01*
X131247619Y-55227142D01*
%TO.C,R8*%
X96443333Y-76922380D02*
X96110000Y-76446190D01*
X95871904Y-76922380D02*
X95871904Y-75922380D01*
X96252857Y-75922380D01*
X96348095Y-75970000D01*
X96395714Y-76017619D01*
X96443333Y-76112857D01*
X96443333Y-76255714D01*
X96395714Y-76350952D01*
X96348095Y-76398571D01*
X96252857Y-76446190D01*
X95871904Y-76446190D01*
X97014761Y-76350952D02*
X96919523Y-76303333D01*
X96871904Y-76255714D01*
X96824285Y-76160476D01*
X96824285Y-76112857D01*
X96871904Y-76017619D01*
X96919523Y-75970000D01*
X97014761Y-75922380D01*
X97205238Y-75922380D01*
X97300476Y-75970000D01*
X97348095Y-76017619D01*
X97395714Y-76112857D01*
X97395714Y-76160476D01*
X97348095Y-76255714D01*
X97300476Y-76303333D01*
X97205238Y-76350952D01*
X97014761Y-76350952D01*
X96919523Y-76398571D01*
X96871904Y-76446190D01*
X96824285Y-76541428D01*
X96824285Y-76731904D01*
X96871904Y-76827142D01*
X96919523Y-76874761D01*
X97014761Y-76922380D01*
X97205238Y-76922380D01*
X97300476Y-76874761D01*
X97348095Y-76827142D01*
X97395714Y-76731904D01*
X97395714Y-76541428D01*
X97348095Y-76446190D01*
X97300476Y-76398571D01*
X97205238Y-76350952D01*
%TO.C,D2*%
X92361904Y-72562380D02*
X92361904Y-71562380D01*
X92600000Y-71562380D01*
X92742857Y-71610000D01*
X92838095Y-71705238D01*
X92885714Y-71800476D01*
X92933333Y-71990952D01*
X92933333Y-72133809D01*
X92885714Y-72324285D01*
X92838095Y-72419523D01*
X92742857Y-72514761D01*
X92600000Y-72562380D01*
X92361904Y-72562380D01*
X93314285Y-71657619D02*
X93361904Y-71610000D01*
X93457142Y-71562380D01*
X93695238Y-71562380D01*
X93790476Y-71610000D01*
X93838095Y-71657619D01*
X93885714Y-71752857D01*
X93885714Y-71848095D01*
X93838095Y-71990952D01*
X93266666Y-72562380D01*
X93885714Y-72562380D01*
D11*
X91571428Y-69371428D02*
X91228571Y-69371428D01*
X91400000Y-69371428D02*
X91400000Y-68771428D01*
X91342857Y-68857142D01*
X91285714Y-68914285D01*
X91228571Y-68942857D01*
D10*
%TO.C,R1*%
X104058980Y-67295066D02*
X103582790Y-67628400D01*
X104058980Y-67866495D02*
X103058980Y-67866495D01*
X103058980Y-67485542D01*
X103106600Y-67390304D01*
X103154219Y-67342685D01*
X103249457Y-67295066D01*
X103392314Y-67295066D01*
X103487552Y-67342685D01*
X103535171Y-67390304D01*
X103582790Y-67485542D01*
X103582790Y-67866495D01*
X104058980Y-66342685D02*
X104058980Y-66914114D01*
X104058980Y-66628400D02*
X103058980Y-66628400D01*
X103201838Y-66723638D01*
X103297076Y-66818876D01*
X103344695Y-66914114D01*
%TO.C,R6*%
X91130380Y-48426666D02*
X90654190Y-48760000D01*
X91130380Y-48998095D02*
X90130380Y-48998095D01*
X90130380Y-48617142D01*
X90178000Y-48521904D01*
X90225619Y-48474285D01*
X90320857Y-48426666D01*
X90463714Y-48426666D01*
X90558952Y-48474285D01*
X90606571Y-48521904D01*
X90654190Y-48617142D01*
X90654190Y-48998095D01*
X90130380Y-47569523D02*
X90130380Y-47760000D01*
X90178000Y-47855238D01*
X90225619Y-47902857D01*
X90368476Y-47998095D01*
X90558952Y-48045714D01*
X90939904Y-48045714D01*
X91035142Y-47998095D01*
X91082761Y-47950476D01*
X91130380Y-47855238D01*
X91130380Y-47664761D01*
X91082761Y-47569523D01*
X91035142Y-47521904D01*
X90939904Y-47474285D01*
X90701809Y-47474285D01*
X90606571Y-47521904D01*
X90558952Y-47569523D01*
X90511333Y-47664761D01*
X90511333Y-47855238D01*
X90558952Y-47950476D01*
X90606571Y-47998095D01*
X90701809Y-48045714D01*
%TO.C,J2*%
X109772380Y-65333333D02*
X110486666Y-65333333D01*
X110629523Y-65380952D01*
X110724761Y-65476190D01*
X110772380Y-65619047D01*
X110772380Y-65714285D01*
X109867619Y-64904761D02*
X109820000Y-64857142D01*
X109772380Y-64761904D01*
X109772380Y-64523809D01*
X109820000Y-64428571D01*
X109867619Y-64380952D01*
X109962857Y-64333333D01*
X110058095Y-64333333D01*
X110200952Y-64380952D01*
X110772380Y-64952380D01*
X110772380Y-64333333D01*
%TO.C,SW2*%
X84086866Y-46112561D02*
X84229723Y-46160180D01*
X84467819Y-46160180D01*
X84563057Y-46112561D01*
X84610676Y-46064942D01*
X84658295Y-45969704D01*
X84658295Y-45874466D01*
X84610676Y-45779228D01*
X84563057Y-45731609D01*
X84467819Y-45683990D01*
X84277342Y-45636371D01*
X84182104Y-45588752D01*
X84134485Y-45541133D01*
X84086866Y-45445895D01*
X84086866Y-45350657D01*
X84134485Y-45255419D01*
X84182104Y-45207800D01*
X84277342Y-45160180D01*
X84515438Y-45160180D01*
X84658295Y-45207800D01*
X84991628Y-45160180D02*
X85229723Y-46160180D01*
X85420200Y-45445895D01*
X85610676Y-46160180D01*
X85848771Y-45160180D01*
X86182104Y-45255419D02*
X86229723Y-45207800D01*
X86324961Y-45160180D01*
X86563057Y-45160180D01*
X86658295Y-45207800D01*
X86705914Y-45255419D01*
X86753533Y-45350657D01*
X86753533Y-45445895D01*
X86705914Y-45588752D01*
X86134485Y-46160180D01*
X86753533Y-46160180D01*
%TO.C,SW1*%
X128856216Y-53868361D02*
X128999073Y-53915980D01*
X129237169Y-53915980D01*
X129332407Y-53868361D01*
X129380026Y-53820742D01*
X129427645Y-53725504D01*
X129427645Y-53630266D01*
X129380026Y-53535028D01*
X129332407Y-53487409D01*
X129237169Y-53439790D01*
X129046692Y-53392171D01*
X128951454Y-53344552D01*
X128903835Y-53296933D01*
X128856216Y-53201695D01*
X128856216Y-53106457D01*
X128903835Y-53011219D01*
X128951454Y-52963600D01*
X129046692Y-52915980D01*
X129284788Y-52915980D01*
X129427645Y-52963600D01*
X129760978Y-52915980D02*
X129999073Y-53915980D01*
X130189550Y-53201695D01*
X130380026Y-53915980D01*
X130618121Y-52915980D01*
X131522883Y-53915980D02*
X130951454Y-53915980D01*
X131237169Y-53915980D02*
X131237169Y-52915980D01*
X131141930Y-53058838D01*
X131046692Y-53154076D01*
X130951454Y-53201695D01*
%TO.C,D3*%
X87811904Y-72572380D02*
X87811904Y-71572380D01*
X88050000Y-71572380D01*
X88192857Y-71620000D01*
X88288095Y-71715238D01*
X88335714Y-71810476D01*
X88383333Y-72000952D01*
X88383333Y-72143809D01*
X88335714Y-72334285D01*
X88288095Y-72429523D01*
X88192857Y-72524761D01*
X88050000Y-72572380D01*
X87811904Y-72572380D01*
X88716666Y-71572380D02*
X89335714Y-71572380D01*
X89002380Y-71953333D01*
X89145238Y-71953333D01*
X89240476Y-72000952D01*
X89288095Y-72048571D01*
X89335714Y-72143809D01*
X89335714Y-72381904D01*
X89288095Y-72477142D01*
X89240476Y-72524761D01*
X89145238Y-72572380D01*
X88859523Y-72572380D01*
X88764285Y-72524761D01*
X88716666Y-72477142D01*
D11*
X87021428Y-69381428D02*
X86678571Y-69381428D01*
X86850000Y-69381428D02*
X86850000Y-68781428D01*
X86792857Y-68867142D01*
X86735714Y-68924285D01*
X86678571Y-68952857D01*
D10*
%TO.C,D4*%
X87811904Y-75142380D02*
X87811904Y-74142380D01*
X88050000Y-74142380D01*
X88192857Y-74190000D01*
X88288095Y-74285238D01*
X88335714Y-74380476D01*
X88383333Y-74570952D01*
X88383333Y-74713809D01*
X88335714Y-74904285D01*
X88288095Y-74999523D01*
X88192857Y-75094761D01*
X88050000Y-75142380D01*
X87811904Y-75142380D01*
X89240476Y-74475714D02*
X89240476Y-75142380D01*
X89002380Y-74094761D02*
X88764285Y-74809047D01*
X89383333Y-74809047D01*
D11*
X90421428Y-77971428D02*
X90078571Y-77971428D01*
X90250000Y-77971428D02*
X90250000Y-77371428D01*
X90192857Y-77457142D01*
X90135714Y-77514285D01*
X90078571Y-77542857D01*
D10*
%TO.C,5V1*%
X79573333Y-53182380D02*
X79097142Y-53182380D01*
X79049523Y-53658571D01*
X79097142Y-53610952D01*
X79192380Y-53563333D01*
X79430476Y-53563333D01*
X79525714Y-53610952D01*
X79573333Y-53658571D01*
X79620952Y-53753809D01*
X79620952Y-53991904D01*
X79573333Y-54087142D01*
X79525714Y-54134761D01*
X79430476Y-54182380D01*
X79192380Y-54182380D01*
X79097142Y-54134761D01*
X79049523Y-54087142D01*
X79906666Y-53182380D02*
X80240000Y-54182380D01*
X80573333Y-53182380D01*
X81430476Y-54182380D02*
X80859047Y-54182380D01*
X81144761Y-54182380D02*
X81144761Y-53182380D01*
X81049523Y-53325238D01*
X80954285Y-53420476D01*
X80859047Y-53468095D01*
%TO.C,D6*%
X89051904Y-67572380D02*
X89051904Y-66572380D01*
X89290000Y-66572380D01*
X89432857Y-66620000D01*
X89528095Y-66715238D01*
X89575714Y-66810476D01*
X89623333Y-67000952D01*
X89623333Y-67143809D01*
X89575714Y-67334285D01*
X89528095Y-67429523D01*
X89432857Y-67524761D01*
X89290000Y-67572380D01*
X89051904Y-67572380D01*
X90480476Y-66572380D02*
X90290000Y-66572380D01*
X90194761Y-66620000D01*
X90147142Y-66667619D01*
X90051904Y-66810476D01*
X90004285Y-67000952D01*
X90004285Y-67381904D01*
X90051904Y-67477142D01*
X90099523Y-67524761D01*
X90194761Y-67572380D01*
X90385238Y-67572380D01*
X90480476Y-67524761D01*
X90528095Y-67477142D01*
X90575714Y-67381904D01*
X90575714Y-67143809D01*
X90528095Y-67048571D01*
X90480476Y-67000952D01*
X90385238Y-66953333D01*
X90194761Y-66953333D01*
X90099523Y-67000952D01*
X90051904Y-67048571D01*
X90004285Y-67143809D01*
%TO.C,D1*%
X97011904Y-68262380D02*
X97011904Y-67262380D01*
X97250000Y-67262380D01*
X97392857Y-67310000D01*
X97488095Y-67405238D01*
X97535714Y-67500476D01*
X97583333Y-67690952D01*
X97583333Y-67833809D01*
X97535714Y-68024285D01*
X97488095Y-68119523D01*
X97392857Y-68214761D01*
X97250000Y-68262380D01*
X97011904Y-68262380D01*
X98535714Y-68262380D02*
X97964285Y-68262380D01*
X98250000Y-68262380D02*
X98250000Y-67262380D01*
X98154761Y-67405238D01*
X98059523Y-67500476D01*
X97964285Y-67548095D01*
D11*
X96221428Y-65071428D02*
X95878571Y-65071428D01*
X96050000Y-65071428D02*
X96050000Y-64471428D01*
X95992857Y-64557142D01*
X95935714Y-64614285D01*
X95878571Y-64642857D01*
D10*
%TO.C,J5*%
X85247380Y-62673333D02*
X85961666Y-62673333D01*
X86104523Y-62720952D01*
X86199761Y-62816190D01*
X86247380Y-62959047D01*
X86247380Y-63054285D01*
X85247380Y-61720952D02*
X85247380Y-62197142D01*
X85723571Y-62244761D01*
X85675952Y-62197142D01*
X85628333Y-62101904D01*
X85628333Y-61863809D01*
X85675952Y-61768571D01*
X85723571Y-61720952D01*
X85818809Y-61673333D01*
X86056904Y-61673333D01*
X86152142Y-61720952D01*
X86199761Y-61768571D01*
X86247380Y-61863809D01*
X86247380Y-62101904D01*
X86199761Y-62197142D01*
X86152142Y-62244761D01*
%TO.C,R7*%
X96388333Y-72782380D02*
X96055000Y-72306190D01*
X95816904Y-72782380D02*
X95816904Y-71782380D01*
X96197857Y-71782380D01*
X96293095Y-71830000D01*
X96340714Y-71877619D01*
X96388333Y-71972857D01*
X96388333Y-72115714D01*
X96340714Y-72210952D01*
X96293095Y-72258571D01*
X96197857Y-72306190D01*
X95816904Y-72306190D01*
X96721666Y-71782380D02*
X97388333Y-71782380D01*
X96959761Y-72782380D01*
%TO.C,C4*%
X119929492Y-52475066D02*
X119977111Y-52522685D01*
X120024730Y-52665542D01*
X120024730Y-52760780D01*
X119977111Y-52903638D01*
X119881873Y-52998876D01*
X119786635Y-53046495D01*
X119596159Y-53094114D01*
X119453302Y-53094114D01*
X119262826Y-53046495D01*
X119167588Y-52998876D01*
X119072350Y-52903638D01*
X119024730Y-52760780D01*
X119024730Y-52665542D01*
X119072350Y-52522685D01*
X119119969Y-52475066D01*
X119358064Y-51617923D02*
X120024730Y-51617923D01*
X118977111Y-51856019D02*
X119691397Y-52094114D01*
X119691397Y-51475066D01*
%TO.C,R2*%
X105733480Y-67246166D02*
X105257290Y-67579500D01*
X105733480Y-67817595D02*
X104733480Y-67817595D01*
X104733480Y-67436642D01*
X104781100Y-67341404D01*
X104828719Y-67293785D01*
X104923957Y-67246166D01*
X105066814Y-67246166D01*
X105162052Y-67293785D01*
X105209671Y-67341404D01*
X105257290Y-67436642D01*
X105257290Y-67817595D01*
X104828719Y-66865214D02*
X104781100Y-66817595D01*
X104733480Y-66722357D01*
X104733480Y-66484261D01*
X104781100Y-66389023D01*
X104828719Y-66341404D01*
X104923957Y-66293785D01*
X105019195Y-66293785D01*
X105162052Y-66341404D01*
X105733480Y-66912833D01*
X105733480Y-66293785D01*
%TO.C,G1*%
X77465714Y-53230000D02*
X77370476Y-53182380D01*
X77227619Y-53182380D01*
X77084761Y-53230000D01*
X76989523Y-53325238D01*
X76941904Y-53420476D01*
X76894285Y-53610952D01*
X76894285Y-53753809D01*
X76941904Y-53944285D01*
X76989523Y-54039523D01*
X77084761Y-54134761D01*
X77227619Y-54182380D01*
X77322857Y-54182380D01*
X77465714Y-54134761D01*
X77513333Y-54087142D01*
X77513333Y-53753809D01*
X77322857Y-53753809D01*
X78465714Y-54182380D02*
X77894285Y-54182380D01*
X78180000Y-54182380D02*
X78180000Y-53182380D01*
X78084761Y-53325238D01*
X77989523Y-53420476D01*
X77894285Y-53468095D01*
%TO.C,D5*%
X92311904Y-75142380D02*
X92311904Y-74142380D01*
X92550000Y-74142380D01*
X92692857Y-74190000D01*
X92788095Y-74285238D01*
X92835714Y-74380476D01*
X92883333Y-74570952D01*
X92883333Y-74713809D01*
X92835714Y-74904285D01*
X92788095Y-74999523D01*
X92692857Y-75094761D01*
X92550000Y-75142380D01*
X92311904Y-75142380D01*
X93788095Y-74142380D02*
X93311904Y-74142380D01*
X93264285Y-74618571D01*
X93311904Y-74570952D01*
X93407142Y-74523333D01*
X93645238Y-74523333D01*
X93740476Y-74570952D01*
X93788095Y-74618571D01*
X93835714Y-74713809D01*
X93835714Y-74951904D01*
X93788095Y-75047142D01*
X93740476Y-75094761D01*
X93645238Y-75142380D01*
X93407142Y-75142380D01*
X93311904Y-75094761D01*
X93264285Y-75047142D01*
D11*
X94921428Y-77971428D02*
X94578571Y-77971428D01*
X94750000Y-77971428D02*
X94750000Y-77371428D01*
X94692857Y-77457142D01*
X94635714Y-77514285D01*
X94578571Y-77542857D01*
D10*
%TO.C,C5*%
X92901742Y-55551666D02*
X92949361Y-55599285D01*
X92996980Y-55742142D01*
X92996980Y-55837380D01*
X92949361Y-55980238D01*
X92854123Y-56075476D01*
X92758885Y-56123095D01*
X92568409Y-56170714D01*
X92425552Y-56170714D01*
X92235076Y-56123095D01*
X92139838Y-56075476D01*
X92044600Y-55980238D01*
X91996980Y-55837380D01*
X91996980Y-55742142D01*
X92044600Y-55599285D01*
X92092219Y-55551666D01*
X91996980Y-54646904D02*
X91996980Y-55123095D01*
X92473171Y-55170714D01*
X92425552Y-55123095D01*
X92377933Y-55027857D01*
X92377933Y-54789761D01*
X92425552Y-54694523D01*
X92473171Y-54646904D01*
X92568409Y-54599285D01*
X92806504Y-54599285D01*
X92901742Y-54646904D01*
X92949361Y-54694523D01*
X92996980Y-54789761D01*
X92996980Y-55027857D01*
X92949361Y-55123095D01*
X92901742Y-55170714D01*
%TO.C,R4*%
X107437180Y-67342066D02*
X106960990Y-67675400D01*
X107437180Y-67913495D02*
X106437180Y-67913495D01*
X106437180Y-67532542D01*
X106484800Y-67437304D01*
X106532419Y-67389685D01*
X106627657Y-67342066D01*
X106770514Y-67342066D01*
X106865752Y-67389685D01*
X106913371Y-67437304D01*
X106960990Y-67532542D01*
X106960990Y-67913495D01*
X106770514Y-66484923D02*
X107437180Y-66484923D01*
X106389561Y-66723019D02*
X107103847Y-66961114D01*
X107103847Y-66342066D01*
D12*
%TO.C,C3*%
X95222600Y-47878420D02*
X95222600Y-48159580D01*
X96242600Y-47878420D02*
X96242600Y-48159580D01*
D11*
%TO.C,J1*%
X108568600Y-81375400D02*
X100168600Y-81375400D01*
X99968600Y-75375400D02*
X108768600Y-75375400D01*
X99968600Y-75375400D02*
X99968600Y-82475400D01*
X108768600Y-75375400D02*
X108768600Y-82475400D01*
X108768600Y-82475400D02*
X99968600Y-82475400D01*
D13*
X104368600Y-75855400D02*
X104368600Y-82175400D01*
D12*
%TO.C,R5*%
X123168250Y-49972324D02*
X123168250Y-49462876D01*
X122123250Y-49972324D02*
X122123250Y-49462876D01*
%TO.C,J4*%
X81470000Y-56050000D02*
X81470000Y-54720000D01*
X84130000Y-57320000D02*
X84130000Y-75160000D01*
X81470000Y-57320000D02*
X81470000Y-75160000D01*
X81470000Y-54720000D02*
X82800000Y-54720000D01*
X81470000Y-75160000D02*
X84130000Y-75160000D01*
X81470000Y-57320000D02*
X84130000Y-57320000D01*
%TO.C,U1*%
X114503200Y-60921900D02*
X114503200Y-40678100D01*
X114503200Y-40678100D02*
X98856800Y-40678100D01*
X98856800Y-60921900D02*
X114503200Y-60921900D01*
X98856800Y-40678100D02*
X98856800Y-60921900D01*
X97459800Y-47138514D02*
G75*
G03*
X97459800Y-47138514I-381000J0D01*
G01*
%TO.C,C2*%
X87138748Y-54965000D02*
X87661252Y-54965000D01*
X87138748Y-56435000D02*
X87661252Y-56435000D01*
%TO.C,R3*%
X101382300Y-70046324D02*
X101382300Y-69536876D01*
X102427300Y-70046324D02*
X102427300Y-69536876D01*
%TO.C,U2*%
X123977800Y-72030400D02*
X123977800Y-73290400D01*
X117967800Y-72030400D02*
X123977800Y-72030400D01*
X123977800Y-78850400D02*
X123977800Y-77590400D01*
X120217800Y-78850400D02*
X123977800Y-78850400D01*
%TO.C,C1*%
X113735000Y-75788748D02*
X113735000Y-76311252D01*
X112265000Y-75788748D02*
X112265000Y-76311252D01*
%TO.C,J3*%
X129870000Y-57200000D02*
X129870000Y-55870000D01*
X129870000Y-55870000D02*
X131200000Y-55870000D01*
X129870000Y-61070000D02*
X132530000Y-61070000D01*
X132530000Y-58470000D02*
X132530000Y-61070000D01*
X129870000Y-58470000D02*
X129870000Y-61070000D01*
X129870000Y-58470000D02*
X132530000Y-58470000D01*
%TO.C,R8*%
X96763641Y-74920000D02*
X96456359Y-74920000D01*
X96763641Y-75680000D02*
X96456359Y-75680000D01*
%TO.C,D2*%
X91900000Y-71400000D02*
X92600000Y-71400000D01*
%TO.C,R1*%
X103058700Y-70048224D02*
X103058700Y-69538776D01*
X104103700Y-70048224D02*
X104103700Y-69538776D01*
%TO.C,R6*%
X91149700Y-51230624D02*
X91149700Y-50721176D01*
X90104700Y-51230624D02*
X90104700Y-50721176D01*
%TO.C,J2*%
X131760000Y-66330000D02*
X131760000Y-63670000D01*
X113920000Y-66330000D02*
X131760000Y-66330000D01*
X111320000Y-66330000D02*
X111320000Y-65000000D01*
X113920000Y-63670000D02*
X131760000Y-63670000D01*
X113920000Y-66330000D02*
X113920000Y-63670000D01*
X112650000Y-66330000D02*
X111320000Y-66330000D01*
%TO.C,SW2*%
X82870200Y-50382800D02*
X82870200Y-51407800D01*
X84045200Y-52257800D02*
X86795200Y-52257800D01*
X87970200Y-50382800D02*
X87970200Y-51407800D01*
X87970200Y-48007800D02*
X87970200Y-49032800D01*
X84045200Y-47157800D02*
X86795200Y-47157800D01*
X82870200Y-48007800D02*
X82870200Y-49032800D01*
%TO.C,SW1*%
X127639550Y-48788600D02*
X127639550Y-47763600D01*
X127639550Y-51163600D02*
X127639550Y-50138600D01*
X132739550Y-51163600D02*
X132739550Y-50138600D01*
X132739550Y-48788600D02*
X132739550Y-47763600D01*
X131564550Y-46913600D02*
X128814550Y-46913600D01*
X131564550Y-52013600D02*
X128814550Y-52013600D01*
%TO.C,D3*%
X87350000Y-71410000D02*
X88050000Y-71410000D01*
%TO.C,D4*%
X89750000Y-75400000D02*
X89050000Y-75400000D01*
%TO.C,5V1*%
X78910000Y-75170000D02*
X81570000Y-75170000D01*
X81570000Y-57330000D02*
X81570000Y-75170000D01*
X78910000Y-56060000D02*
X78910000Y-54730000D01*
X78910000Y-54730000D02*
X80240000Y-54730000D01*
X78910000Y-57330000D02*
X81570000Y-57330000D01*
X78910000Y-57330000D02*
X78910000Y-75170000D01*
%TO.C,D6*%
X91275000Y-64955000D02*
X88990000Y-64955000D01*
X91275000Y-66425000D02*
X91275000Y-64955000D01*
X88990000Y-66425000D02*
X91275000Y-66425000D01*
%TO.C,D1*%
X96550000Y-67100000D02*
X97250000Y-67100000D01*
%TO.C,J5*%
X91995000Y-63670000D02*
X91995000Y-61010000D01*
X89395000Y-63670000D02*
X91995000Y-63670000D01*
X89395000Y-63670000D02*
X89395000Y-61010000D01*
X86795000Y-63670000D02*
X86795000Y-62340000D01*
X89395000Y-61010000D02*
X91995000Y-61010000D01*
X88125000Y-63670000D02*
X86795000Y-63670000D01*
%TO.C,R7*%
X96401359Y-73120000D02*
X96708641Y-73120000D01*
X96401359Y-73880000D02*
X96708641Y-73880000D01*
%TO.C,C4*%
X119113150Y-49450020D02*
X119113150Y-49731180D01*
X120133150Y-49450020D02*
X120133150Y-49731180D01*
%TO.C,R2*%
X104735100Y-70077424D02*
X104735100Y-69567976D01*
X105780100Y-70077424D02*
X105780100Y-69567976D01*
%TO.C,G1*%
X76350000Y-56060000D02*
X76350000Y-54730000D01*
X76350000Y-54730000D02*
X77680000Y-54730000D01*
X76350000Y-57330000D02*
X76350000Y-75170000D01*
X79010000Y-57330000D02*
X79010000Y-75170000D01*
X76350000Y-75170000D02*
X79010000Y-75170000D01*
X76350000Y-57330000D02*
X79010000Y-57330000D01*
%TO.C,D5*%
X94250000Y-75400000D02*
X93550000Y-75400000D01*
%TO.C,C5*%
X92073000Y-52883980D02*
X92073000Y-52602820D01*
X93093000Y-52883980D02*
X93093000Y-52602820D01*
%TO.C,R4*%
X106487700Y-70097124D02*
X106487700Y-69587676D01*
X107532700Y-70097124D02*
X107532700Y-69587676D01*
%TD*%
M02*
