M48
; DRILL file {KiCad (6.0.4)} date Fri Jun 24 22:41:11 2022
; FORMAT={-:-/ absolute / metric / decimal}
; #@! TF.CreationDate,2022-06-24T22:41:11+02:00
; #@! TF.GenerationSoftware,Kicad,Pcbnew,(6.0.4)
; #@! TF.FileFunction,Plated,1,2,PTH
FMAT,2
METRIC
; #@! TA.AperFunction,Plated,PTH,ViaDrill
T1C0.400
; #@! TA.AperFunction,Plated,PTH,ComponentDrill
T2C0.600
; #@! TA.AperFunction,Plated,PTH,ComponentDrill
T3C1.000
%
G90
G05
T1
X81.2Y-76.91
X85.1Y-73.8
X87.65Y-67.7
X87.79Y-65.69
X89.35Y-78.9
X89.864Y-55.7
X92.25Y-67.7
X92.95Y-78.9
X93.5Y-48.5
X94.0Y-67.87
X96.0Y-63.4
X97.6Y-63.2
X97.7Y-67.9
X97.8Y-61.2
X98.155Y-73.5
X98.6Y-63.5
X99.6Y-61.7
X99.724Y-63.1
X100.0Y-69.1
X100.24Y-72.17
X100.712Y-65.112
X102.1Y-66.2
X103.2Y-61.6
X115.0Y-61.0
X116.505Y-75.39
X122.682Y-46.812
X130.0Y-62.4
T3
X77.68Y-56.06
X77.68Y-58.6
X77.68Y-61.14
X77.68Y-63.68
X77.68Y-66.22
X77.68Y-68.76
X77.68Y-71.3
X77.68Y-73.84
X80.24Y-56.06
X80.24Y-58.6
X80.24Y-61.14
X80.24Y-63.68
X80.24Y-66.22
X80.24Y-68.76
X80.24Y-71.3
X80.24Y-73.84
X82.8Y-56.05
X82.8Y-58.59
X82.8Y-61.13
X82.8Y-63.67
X82.8Y-66.21
X82.8Y-68.75
X82.8Y-71.29
X82.8Y-73.83
X88.125Y-62.34
X90.665Y-62.34
X112.65Y-65.0
X115.19Y-65.0
X117.73Y-65.0
X120.27Y-65.0
X122.81Y-65.0
X125.35Y-65.0
X127.89Y-65.0
X130.43Y-65.0
X131.2Y-57.2
X131.2Y-59.74
T2
G00X100.049Y-75.145
M15
G01X100.049Y-76.245
M16
G05
G00X100.049Y-79.575
M15
G01X100.049Y-80.175
M16
G05
G00X108.689Y-75.145
M15
G01X108.689Y-76.245
M16
G05
G00X108.689Y-79.575
M15
G01X108.689Y-80.175
M16
G05
T0
M30
